<?xml version="1.0" encoding="UTF-8" standalone="no"?>
<svg
   xmlns:dc="http://purl.org/dc/elements/1.1/"
   xmlns:cc="http://creativecommons.org/ns#"
   xmlns:rdf="http://www.w3.org/1999/02/22-rdf-syntax-ns#"
   xmlns:svg="http://www.w3.org/2000/svg"
   xmlns="http://www.w3.org/2000/svg"
   xmlns:sodipodi="http://sodipodi.sourceforge.net/DTD/sodipodi-0.dtd"
   xmlns:inkscape="http://www.inkscape.org/namespaces/inkscape"
   viewBox="0 0 24 23.999999"
   version="1.1"
   id="svg242"
   sodipodi:docname="choropleth.svg"
   inkscape:version="0.92.3 (2405546, 2018-03-11)">
  <metadata
     id="metadata246">
    <rdf:RDF>
      <cc:Work
         rdf:about="">
        <dc:format>image/svg+xml</dc:format>
        <dc:type
           rdf:resource="http://purl.org/dc/dcmitype/StillImage" />
        <dc:title />
      </cc:Work>
    </rdf:RDF>
  </metadata>
  <sodipodi:namedview
     pagecolor="#ffffff"
     bordercolor="#666666"
     borderopacity="1"
     objecttolerance="10"
     gridtolerance="10"
     guidetolerance="10"
     inkscape:pageopacity="0"
     inkscape:pageshadow="2"
     inkscape:window-width="1304"
     inkscape:window-height="802"
     id="namedview244"
     showgrid="false"
     fit-margin-top="0"
     fit-margin-left="0"
     fit-margin-right="0"
     fit-margin-bottom="0"
     inkscape:zoom="27.243866"
     inkscape:cx="10.859466"
     inkscape:cy="10.897442"
     inkscape:window-x="0"
     inkscape:window-y="0"
     inkscape:window-maximized="0"
     inkscape:current-layer="svg242" />
  <defs
     id="defs4">
    <style
       type="text/css"
       id="style2"><![CDATA[
    line, polyline, path, rect, circle {
      fill: none;
      stroke: #000000;
      stroke-linecap: round;
      stroke-linejoin: round;
      stroke-miterlimit: 10.00;
    }
  ]]></style>
  </defs>
  <rect
     width="4.3290043%"
     height="4.3290043%"
     style="fill:#ffffff;stroke:none;stroke-width:0.1;stroke-linecap:round;stroke-linejoin:round;stroke-miterlimit:10;stroke-dasharray:none"
     id="rect6"
     x="0"
     y="1.9073486e-006" />
  <defs
     id="defs11">
    <clipPath
       id="cpMTAuNDYwOHw0OTcuMDI2fDU0My45Mzl8Ni45NzM4NQ==">
      <rect
         x="10.46"
         y="6.9699998"
         width="486.57001"
         height="536.96997"
         id="rect8"
         style="fill:none;stroke:#000000;stroke-linecap:round;stroke-linejoin:round;stroke-miterlimit:10" />
    </clipPath>
  </defs>
  <polyline
     points="150.81,436.59 161.39,436.59 181.39,431.85 187.86,431.85 188.45,433.43 193.16,438.17 193.75,490.31 189.63,492.68 186.69,490.31 181.39,485.57 173.75,483.20 165.51,480.04 156.10,482.41 153.16,487.15 150.81,488.73 146.69,487.15 150.81,436.59 "
     style="fill:#999999;stroke:#000000;stroke-width:2.31000018;stroke-linecap:round;stroke-linejoin:round;stroke-miterlimit:10;stroke-dasharray:none"
     clip-path="url(#cpMTAuNDYwOHw0OTcuMDI2fDU0My45Mzl8Ni45NzM4NQ==)"
     id="polyline13"
     transform="matrix(0.04329004,0,0,0.04329004,0,-2.5067139e-6)" />
  <polyline
     points="129.04,188.57 129.04,213.85 104.93,213.06 104.93,211.48 93.16,211.48 93.16,207.53 76.10,209.11 75.52,189.36 80.81,189.36 80.81,184.62 104.93,183.04 104.93,177.51 117.28,176.72 117.28,174.35 129.04,175.14 129.04,188.57 "
     style="fill:#ffffff;stroke:#000000;stroke-width:2.31000018;stroke-linecap:round;stroke-linejoin:round;stroke-miterlimit:10;stroke-dasharray:none"
     clip-path="url(#cpMTAuNDYwOHw0OTcuMDI2fDU0My45Mzl8Ni45NzM4NQ==)"
     id="polyline15"
     transform="matrix(0.04329004,0,0,0.04329004,0,-2.5067139e-6)" />
  <polyline
     points="309.04,164.08 309.04,209.11 299.04,209.11 299.04,222.53 287.86,224.90 287.86,201.21 282.57,199.63 282.57,191.73 280.80,190.15 280.21,188.57 280.21,164.08 277.27,164.08 277.86,153.81 286.68,153.81 304.92,154.60 304.92,164.08 309.04,164.08 "
     style="fill:#e6e6e6;stroke:#000000;stroke-width:2.31000018;stroke-linecap:round;stroke-linejoin:round;stroke-miterlimit:10;stroke-dasharray:none"
     clip-path="url(#cpMTAuNDYwOHw0OTcuMDI2fDU0My45Mzl8Ni45NzM4NQ==)"
     id="polyline17"
     transform="matrix(0.04329004,0,0,0.04329004,0,-2.5067139e-6)" />
  <polyline
     points="473.14,49.55 473.14,96.15 424.32,95.36 423.74,63.77 424.32,46.39 431.38,44.81 442.56,41.65 451.97,36.91 461.38,33.75 472.56,31.38 473.14,49.55 "
     style="fill:#999999;stroke:#000000;stroke-width:2.31000018;stroke-linecap:round;stroke-linejoin:round;stroke-miterlimit:10;stroke-dasharray:none"
     clip-path="url(#cpMTAuNDYwOHw0OTcuMDI2fDU0My45Mzl8Ni45NzM4NQ==)"
     id="polyline19"
     transform="matrix(0.04329004,0,0,0.04329004,0,-2.5067139e-6)" />
  <polyline
     points="349.62,409.74 347.86,414.48 294.33,411.32 295.51,400.26 291.98,398.68 293.15,386.04 294.33,373.40 304.92,374.19 305.51,362.34 317.27,362.34 316.09,375.77 339.03,376.56 337.86,393.94 339.62,393.94 339.62,396.31 341.39,396.31 341.97,400.26 350.80,401.05 349.62,409.74 "
     style="fill:#e6e6e6;stroke:#000000;stroke-width:2.31000018;stroke-linecap:round;stroke-linejoin:round;stroke-miterlimit:10;stroke-dasharray:none"
     clip-path="url(#cpMTAuNDYwOHw0OTcuMDI2fDU0My45Mzl8Ni45NzM4NQ==)"
     id="polyline21"
     transform="matrix(0.04329004,0,0,0.04329004,0,-2.5067139e-6)" />
  <polyline
     points="129.63,228.85 117.87,228.06 117.87,235.96 80.81,235.96 80.81,250.18 71.40,250.18 71.40,253.34 69.63,254.13 69.05,209.11 76.10,209.11 93.16,207.53 93.16,211.48 104.93,211.48 104.93,213.06 129.04,213.85 129.63,228.85 "
     style="fill:#ffffff;stroke:#000000;stroke-width:2.31000018;stroke-linecap:round;stroke-linejoin:round;stroke-miterlimit:10;stroke-dasharray:none"
     clip-path="url(#cpMTAuNDYwOHw0OTcuMDI2fDU0My45Mzl8Ni45NzM4NQ==)"
     id="polyline23"
     transform="matrix(0.04329004,0,0,0.04329004,0,-2.5067139e-6)" />
  <polyline
     points="454.91,280.20 450.21,292.83 450.79,296.78 450.79,297.57 449.03,306.26 448.44,311.00 444.32,312.58 443.73,314.95 444.91,318.11 442.56,322.06 401.38,318.90 401.38,307.84 401.97,277.04 437.85,278.62 449.03,280.20 449.62,278.62 454.91,280.20 "
     style="fill:#999999;stroke:#000000;stroke-width:2.31000018;stroke-linecap:round;stroke-linejoin:round;stroke-miterlimit:10;stroke-dasharray:none"
     clip-path="url(#cpMTAuNDYwOHw0OTcuMDI2fDU0My45Mzl8Ni45NzM4NQ==)"
     id="polyline25"
     transform="matrix(0.04329004,0,0,0.04329004,0,-2.5067139e-6)" />
  <polyline
     points="150.81,436.59 146.69,487.15 140.81,485.57 133.75,479.25 130.22,473.72 126.69,472.14 124.34,471.35 120.22,468.19 111.40,468.98 117.28,404.21 129.04,405.00 127.28,436.59 150.81,436.59 "
     style="fill:#f2f2f2;stroke:#000000;stroke-width:2.31000018;stroke-linecap:round;stroke-linejoin:round;stroke-miterlimit:10;stroke-dasharray:none"
     clip-path="url(#cpMTAuNDYwOHw0OTcuMDI2fDU0My45Mzl8Ni45NzM4NQ==)"
     id="polyline27"
     transform="matrix(0.04329004,0,0,0.04329004,0,-2.5067139e-6)" />
  <polyline
     points="32.58,367.87 32.58,361.55 67.28,360.76 67.28,358.39 80.81,358.39 80.81,363.13 82.58,363.13 81.40,400.26 60.22,397.10 32.58,397.89 32.58,367.87 "
     style="fill:#ffffff;stroke:#000000;stroke-width:2.31000018;stroke-linecap:round;stroke-linejoin:round;stroke-miterlimit:10;stroke-dasharray:none"
     clip-path="url(#cpMTAuNDYwOHw0OTcuMDI2fDU0My45Mzl8Ni45NzM4NQ==)"
     id="polyline29"
     transform="matrix(0.04329004,0,0,0.04329004,0,-2.5067139e-6)" />
  <polyline
     points="439.62,218.58 439.62,224.90 434.32,224.90 434.32,236.75 431.38,236.75 431.38,242.28 397.27,240.70 398.44,223.32 391.97,222.53 392.56,210.69 400.21,210.69 400.21,201.21 403.74,201.21 404.32,201.21 416.68,201.21 434.91,201.21 434.32,212.27 440.21,213.06 439.62,218.58 "
     style="fill:#e6e6e6;stroke:#000000;stroke-width:2.31000018;stroke-linecap:round;stroke-linejoin:round;stroke-miterlimit:10;stroke-dasharray:none"
     clip-path="url(#cpMTAuNDYwOHw0OTcuMDI2fDU0My45Mzl8Ni45NzM4NQ==)"
     id="polyline31"
     transform="matrix(0.04329004,0,0,0.04329004,0,-2.5067139e-6)" />
  <polyline
     points="167.28,286.51 166.69,300.73 113.75,295.99 114.34,277.04 114.93,264.40 137.87,265.98 139.04,266.77 162.57,269.14 168.45,269.93 167.28,286.51 "
     style="fill:#ffffff;stroke:#000000;stroke-width:2.31000018;stroke-linecap:round;stroke-linejoin:round;stroke-miterlimit:10;stroke-dasharray:none"
     clip-path="url(#cpMTAuNDYwOHw0OTcuMDI2fDU0My45Mzl8Ni45NzM4NQ==)"
     id="polyline33"
     transform="matrix(0.04329004,0,0,0.04329004,0,-2.5067139e-6)" />
  <polyline
     points="166.69,300.73 159.04,333.91 153.75,333.12 143.75,332.33 143.75,330.75 134.34,329.96 134.34,326.80 122.57,326.01 122.57,323.64 110.81,322.85 111.40,318.90 113.75,295.99 166.69,300.73 "
     style="fill:#ffffff;stroke:#000000;stroke-width:2.31000018;stroke-linecap:round;stroke-linejoin:round;stroke-miterlimit:10;stroke-dasharray:none"
     clip-path="url(#cpMTAuNDYwOHw0OTcuMDI2fDU0My45Mzl8Ni45NzM4NQ==)"
     id="polyline35"
     transform="matrix(0.04329004,0,0,0.04329004,0,-2.5067139e-6)" />
  <polyline
     points="115.51,404.21 117.28,404.21 111.40,468.98 107.87,468.98 100.81,466.61 93.16,463.45 93.16,458.71 93.16,455.55 90.81,450.02 87.87,444.49 86.10,440.54 84.93,437.38 86.10,416.06 87.87,412.11 87.87,410.53 85.52,409.74 84.93,408.95 85.52,408.16 88.46,405.79 90.22,403.42 90.81,402.63 115.51,404.21 "
     style="fill:#ffffff;stroke:#000000;stroke-width:2.31000018;stroke-linecap:round;stroke-linejoin:round;stroke-miterlimit:10;stroke-dasharray:none"
     clip-path="url(#cpMTAuNDYwOHw0OTcuMDI2fDU0My45Mzl8Ni45NzM4NQ==)"
     id="polyline37"
     transform="matrix(0.04329004,0,0,0.04329004,0,-2.5067139e-6)" />
  <polyline
     points="117.28,404.21 115.51,404.21 119.04,360.76 151.98,364.71 161.98,365.50 159.63,387.62 137.87,403.42 137.87,406.58 136.10,408.16 134.92,408.16 134.92,405.00 129.04,405.00 117.28,404.21 "
     style="fill:#f2f2f2;stroke:#000000;stroke-width:2.31000018;stroke-linecap:round;stroke-linejoin:round;stroke-miterlimit:10;stroke-dasharray:none"
     clip-path="url(#cpMTAuNDYwOHw0OTcuMDI2fDU0My45Mzl8Ni45NzM4NQ==)"
     id="polyline39"
     transform="matrix(0.04329004,0,0,0.04329004,0,-2.5067139e-6)" />
  <polyline
     points="439.62,218.58 440.21,213.06 434.32,212.27 434.91,201.21 416.68,201.21 416.68,176.72 436.68,176.72 436.68,172.77 444.32,173.56 444.91,176.72 474.91,177.51 474.91,184.62 474.32,213.85 470.20,214.64 463.73,215.43 459.62,217.79 459.03,219.37 458.44,221.74 451.97,220.16 451.97,218.58 439.62,218.58 "
     style="fill:#ffffff;stroke:#000000;stroke-width:2.31000018;stroke-linecap:round;stroke-linejoin:round;stroke-miterlimit:10;stroke-dasharray:none"
     clip-path="url(#cpMTAuNDYwOHw0OTcuMDI2fDU0My45Mzl8Ni45NzM4NQ==)"
     id="polyline41"
     transform="matrix(0.04329004,0,0,0.04329004,0,-2.5067139e-6)" />
  <polyline
     points="301.39,268.35 303.74,237.54 352.56,240.70 351.97,249.39 361.97,250.18 360.80,269.93 356.09,269.14 356.09,280.20 351.39,280.20 302.56,277.04 303.74,268.35 301.39,268.35 "
     style="fill:#ffffff;stroke:#000000;stroke-width:2.31000018;stroke-linecap:round;stroke-linejoin:round;stroke-miterlimit:10;stroke-dasharray:none"
     clip-path="url(#cpMTAuNDYwOHw0OTcuMDI2fDU0My45Mzl8Ni45NzM4NQ==)"
     id="polyline43"
     transform="matrix(0.04329004,0,0,0.04329004,0,-2.5067139e-6)" />
  <polyline
     points="234.92,204.37 208.45,204.37 209.04,193.31 209.04,191.73 209.04,187.78 209.04,188.57 208.45,164.87 234.33,164.87 234.92,163.29 236.69,164.08 247.86,164.08 247.86,202.79 234.92,202.00 234.92,204.37 "
     style="fill:#e6e6e6;stroke:#000000;stroke-width:2.31000018;stroke-linecap:round;stroke-linejoin:round;stroke-miterlimit:10;stroke-dasharray:none"
     clip-path="url(#cpMTAuNDYwOHw0OTcuMDI2fDU0My45Mzl8Ni45NzM4NQ==)"
     id="polyline45"
     transform="matrix(0.04329004,0,0,0.04329004,0,-2.5067139e-6)" />
  <polyline
     points="326.09,95.36 334.33,96.94 337.27,96.94 344.92,96.15 348.45,94.57 356.09,92.20 367.27,81.93 375.50,76.40 375.50,83.51 384.91,84.30 384.33,100.10 386.68,100.10 386.68,103.26 384.91,103.26 384.33,114.32 363.74,113.53 367.86,124.59 355.50,125.38 335.50,124.59 335.50,114.32 324.92,114.32 326.09,95.36 "
     style="fill:#cccccc;stroke:#000000;stroke-width:2.31000018;stroke-linecap:round;stroke-linejoin:round;stroke-miterlimit:10;stroke-dasharray:none"
     clip-path="url(#cpMTAuNDYwOHw0OTcuMDI2fDU0My45Mzl8Ni45NzM4NQ==)"
     id="polyline47"
     transform="matrix(0.04329004,0,0,0.04329004,0,-2.5067139e-6)" />
  <polyline
     points="72.58,274.67 72.58,312.58 66.69,314.16 32.58,312.58 32.58,300.73 33.17,259.66 33.17,254.13 69.63,254.13 71.40,253.34 72.58,274.67 "
     style="fill:#ffffff;stroke:#000000;stroke-width:2.31000018;stroke-linecap:round;stroke-linejoin:round;stroke-miterlimit:10;stroke-dasharray:none"
     clip-path="url(#cpMTAuNDYwOHw0OTcuMDI2fDU0My45Mzl8Ni45NzM4NQ==)"
     id="polyline49"
     transform="matrix(0.04329004,0,0,0.04329004,0,-2.5067139e-6)" />
  <polyline
     points="80.81,141.18 80.81,134.86 69.63,134.07 69.05,129.33 34.34,129.33 34.34,126.17 34.93,105.63 81.40,105.63 92.57,105.63 92.57,141.18 80.81,141.18 "
     style="fill:#f2f2f2;stroke:#000000;stroke-width:2.31000018;stroke-linecap:round;stroke-linejoin:round;stroke-miterlimit:10;stroke-dasharray:none"
     clip-path="url(#cpMTAuNDYwOHw0OTcuMDI2fDU0My45Mzl8Ni45NzM4NQ==)"
     id="polyline51"
     transform="matrix(0.04329004,0,0,0.04329004,0,-2.5067139e-6)" />
  <polyline
     points="246.68,262.03 245.51,283.36 201.98,281.78 201.98,267.56 194.33,266.77 194.33,240.70 217.27,243.07 217.86,243.07 227.27,243.86 227.27,251.76 247.27,251.76 246.68,262.03 "
     style="fill:#b3b3b3;stroke:#000000;stroke-width:2.31000018;stroke-linecap:round;stroke-linejoin:round;stroke-miterlimit:10;stroke-dasharray:none"
     clip-path="url(#cpMTAuNDYwOHw0OTcuMDI2fDU0My45Mzl8Ni45NzM4NQ==)"
     id="polyline53"
     transform="matrix(0.04329004,0,0,0.04329004,0,-2.5067139e-6)" />
  <polyline
     points="286.68,122.22 236.10,123.01 235.51,105.63 233.16,105.63 237.27,100.10 241.98,99.31 246.10,99.31 248.45,99.31 250.80,97.73 253.16,97.73 256.68,103.26 270.80,110.37 274.33,110.37 283.74,105.63 286.10,105.63 286.68,122.22 "
     style="fill:#999999;stroke:#000000;stroke-width:2.31000018;stroke-linecap:round;stroke-linejoin:round;stroke-miterlimit:10;stroke-dasharray:none"
     clip-path="url(#cpMTAuNDYwOHw0OTcuMDI2fDU0My45Mzl8Ni45NzM4NQ==)"
     id="polyline55"
     transform="matrix(0.04329004,0,0,0.04329004,0,-2.5067139e-6)" />
  <polyline
     points="244.33,311.00 275.51,312.58 274.33,324.43 281.98,325.22 281.39,337.07 284.33,337.07 283.74,349.71 273.15,348.92 272.57,356.03 260.21,356.03 260.21,362.34 249.04,360.76 248.45,363.13 237.27,362.34 238.45,330.75 239.04,325.22 241.39,324.43 241.98,313.37 240.22,313.37 240.22,310.21 244.33,311.00 "
     style="fill:#808080;stroke:#000000;stroke-width:2.31000018;stroke-linecap:round;stroke-linejoin:round;stroke-miterlimit:10;stroke-dasharray:none"
     clip-path="url(#cpMTAuNDYwOHw0OTcuMDI2fDU0My45Mzl8Ni45NzM4NQ==)"
     id="polyline57"
     transform="matrix(0.04329004,0,0,0.04329004,0,-2.5067139e-6)" />
  <polyline
     points="151.98,364.71 153.16,341.81 194.33,344.18 192.57,369.45 187.86,377.35 181.98,387.62 159.63,387.62 161.98,365.50 151.98,364.71 "
     style="fill:#ffffff;stroke:#000000;stroke-width:2.31000018;stroke-linecap:round;stroke-linejoin:round;stroke-miterlimit:10;stroke-dasharray:none"
     clip-path="url(#cpMTAuNDYwOHw0OTcuMDI2fDU0My45Mzl8Ni45NzM4NQ==)"
     id="polyline59"
     transform="matrix(0.04329004,0,0,0.04329004,0,-2.5067139e-6)" />
  <polyline
     points="245.51,283.36 244.33,311.00 240.22,310.21 240.22,313.37 241.98,313.37 241.39,324.43 239.04,325.22 238.45,330.75 194.92,328.38 194.33,313.37 197.28,312.58 194.33,308.63 193.75,304.68 193.16,298.36 193.75,294.41 198.45,294.41 198.45,288.09 201.98,286.51 201.98,281.78 245.51,283.36 "
     style="fill:#ffffff;stroke:#000000;stroke-width:2.31000018;stroke-linecap:round;stroke-linejoin:round;stroke-miterlimit:10;stroke-dasharray:none"
     clip-path="url(#cpMTAuNDYwOHw0OTcuMDI2fDU0My45Mzl8Ni45NzM4NQ==)"
     id="polyline61"
     transform="matrix(0.04329004,0,0,0.04329004,0,-2.5067139e-6)" />
  <polyline
     points="127.87,96.94 81.40,97.73 81.99,92.99 78.46,92.20 78.46,77.98 76.10,77.98 75.52,65.35 79.05,65.35 128.46,62.98 129.04,77.98 127.87,77.98 127.87,96.94 "
     style="fill:#ffffff;stroke:#000000;stroke-width:2.31000018;stroke-linecap:round;stroke-linejoin:round;stroke-miterlimit:10;stroke-dasharray:none"
     clip-path="url(#cpMTAuNDYwOHw0OTcuMDI2fDU0My45Mzl8Ni45NzM4NQ==)"
     id="polyline63"
     transform="matrix(0.04329004,0,0,0.04329004,0,-2.5067139e-6)" />
  <polyline
     points="263.74,460.29 263.15,458.71 275.51,459.50 278.45,434.22 289.62,435.80 289.62,436.59 313.74,440.54 310.21,444.49 307.86,452.39 306.68,461.08 299.62,466.61 299.62,471.35 301.39,477.67 301.39,484.78 301.98,493.47 300.21,495.05 293.74,495.84 292.57,497.42 285.51,495.84 286.10,483.20 274.33,482.41 274.33,474.51 272.57,473.72 272.57,469.77 263.15,468.98 263.74,460.29 "
     style="fill:#e6e6e6;stroke:#000000;stroke-width:2.31000018;stroke-linecap:round;stroke-linejoin:round;stroke-miterlimit:10;stroke-dasharray:none"
     clip-path="url(#cpMTAuNDYwOHw0OTcuMDI2fDU0My45Mzl8Ni45NzM4NQ==)"
     id="polyline65"
     transform="matrix(0.04329004,0,0,0.04329004,0,-2.5067139e-6)" />
  <polyline
     points="424.32,95.36 424.32,114.32 384.33,114.32 384.91,103.26 386.68,103.26 386.68,100.10 384.33,100.10 384.91,84.30 394.33,84.30 394.91,74.03 414.32,73.25 414.91,63.77 423.74,63.77 424.32,95.36 "
     style="fill:#e6e6e6;stroke:#000000;stroke-width:2.31000018;stroke-linecap:round;stroke-linejoin:round;stroke-miterlimit:10;stroke-dasharray:none"
     clip-path="url(#cpMTAuNDYwOHw0OTcuMDI2fDU0My45Mzl8Ni45NzM4NQ==)"
     id="polyline67"
     transform="matrix(0.04329004,0,0,0.04329004,0,-2.5067139e-6)" />
  <polyline
     points="153.75,333.12 153.16,341.81 151.98,364.71 119.04,360.76 103.75,359.97 106.69,324.43 110.81,324.43 110.81,322.85 122.57,323.64 122.57,326.01 134.34,326.80 134.34,329.96 143.75,330.75 143.75,332.33 153.75,333.12 "
     style="fill:#ffffff;stroke:#000000;stroke-width:2.31000018;stroke-linecap:round;stroke-linejoin:round;stroke-miterlimit:10;stroke-dasharray:none"
     clip-path="url(#cpMTAuNDYwOHw0OTcuMDI2fDU0My45Mzl8Ni45NzM4NQ==)"
     id="polyline69"
     transform="matrix(0.04329004,0,0,0.04329004,0,-2.5067139e-6)" />
  <polyline
     points="401.38,307.84 386.68,307.84 386.68,312.58 378.44,312.58 377.86,314.95 366.09,314.95 365.50,322.85 353.74,323.64 354.33,310.21 350.80,310.21 351.39,280.20 356.09,280.20 356.09,269.14 360.80,269.93 390.21,272.30 390.80,276.25 401.97,277.04 401.38,307.84 "
     style="fill:#b3b3b3;stroke:#000000;stroke-width:2.31000018;stroke-linecap:round;stroke-linejoin:round;stroke-miterlimit:10;stroke-dasharray:none"
     clip-path="url(#cpMTAuNDYwOHw0OTcuMDI2fDU0My45Mzl8Ni45NzM4NQ==)"
     id="polyline71"
     transform="matrix(0.04329004,0,0,0.04329004,0,-2.5067139e-6)" />
  <polyline
     points="90.81,402.63 90.22,403.42 88.46,405.79 85.52,408.16 84.93,408.95 85.52,409.74 87.87,410.53 87.87,412.11 86.10,416.06 84.93,437.38 81.40,435.01 76.69,431.85 73.75,429.48 72.58,425.54 70.22,423.96 67.87,423.96 64.34,426.32 58.46,428.69 52.58,429.48 48.46,427.91 43.75,425.54 40.22,422.38 36.69,422.38 32.58,424.75 32.58,397.89 60.22,397.10 81.40,400.26 90.81,400.26 90.81,402.63 "
     style="fill:#ffffff;stroke:#000000;stroke-width:2.31000018;stroke-linecap:round;stroke-linejoin:round;stroke-miterlimit:10;stroke-dasharray:none"
     clip-path="url(#cpMTAuNDYwOHw0OTcuMDI2fDU0My45Mzl8Ni45NzM4NQ==)"
     id="polyline73"
     transform="matrix(0.04329004,0,0,0.04329004,0,-2.5067139e-6)" />
  <polyline
     points="166.69,188.57 129.04,188.57 129.04,175.14 129.04,141.18 176.10,140.39 176.69,164.87 171.39,164.08 171.39,169.61 169.63,169.61 169.04,176.72 166.69,176.72 166.69,188.57 "
     style="fill:#e6e6e6;stroke:#000000;stroke-width:2.31000018;stroke-linecap:round;stroke-linejoin:round;stroke-miterlimit:10;stroke-dasharray:none"
     clip-path="url(#cpMTAuNDYwOHw0OTcuMDI2fDU0My45Mzl8Ni45NzM4NQ==)"
     id="polyline75"
     transform="matrix(0.04329004,0,0,0.04329004,0,-2.5067139e-6)" />
  <polyline
     points="129.04,213.85 129.04,188.57 166.69,188.57 169.04,188.57 169.04,204.37 174.92,204.37 174.92,206.74 176.10,206.74 176.69,231.22 166.10,232.80 148.45,228.85 129.63,228.85 129.04,213.85 "
     style="fill:#b3b3b3;stroke:#000000;stroke-width:2.31000018;stroke-linecap:round;stroke-linejoin:round;stroke-miterlimit:10;stroke-dasharray:none"
     clip-path="url(#cpMTAuNDYwOHw0OTcuMDI2fDU0My45Mzl8Ni45NzM4NQ==)"
     id="polyline77"
     transform="matrix(0.04329004,0,0,0.04329004,0,-2.5067139e-6)" />
  <polyline
     points="401.97,277.04 390.80,276.25 390.21,272.30 390.80,258.87 396.09,258.87 397.27,240.70 431.38,242.28 439.62,242.28 437.85,278.62 401.97,277.04 "
     style="fill:#e6e6e6;stroke:#000000;stroke-width:2.31000018;stroke-linecap:round;stroke-linejoin:round;stroke-miterlimit:10;stroke-dasharray:none"
     clip-path="url(#cpMTAuNDYwOHw0OTcuMDI2fDU0My45Mzl8Ni45NzM4NQ==)"
     id="polyline79"
     transform="matrix(0.04329004,0,0,0.04329004,0,-2.5067139e-6)" />
  <polyline
     points="81.40,97.73 127.87,96.94 128.46,105.63 129.04,141.18 92.57,141.18 92.57,105.63 81.40,105.63 81.40,97.73 "
     style="fill:#e6e6e6;stroke:#000000;stroke-width:2.31000018;stroke-linecap:round;stroke-linejoin:round;stroke-miterlimit:10;stroke-dasharray:none"
     clip-path="url(#cpMTAuNDYwOHw0OTcuMDI2fDU0My45Mzl8Ni45NzM4NQ==)"
     id="polyline81"
     transform="matrix(0.04329004,0,0,0.04329004,0,-2.5067139e-6)" />
  <polyline
     points="183.75,412.11 181.39,431.85 161.39,436.59 150.81,436.59 127.28,436.59 129.04,405.00 134.92,405.00 134.92,408.16 136.10,408.16 137.87,406.58 137.87,403.42 159.63,387.62 181.98,387.62 181.39,389.99 180.22,393.94 179.63,400.26 179.04,401.05 180.22,405.00 181.39,405.00 182.57,404.21 183.75,404.21 183.75,405.00 183.75,412.11 "
     style="fill:#f2f2f2;stroke:#000000;stroke-width:2.31000018;stroke-linecap:round;stroke-linejoin:round;stroke-miterlimit:10;stroke-dasharray:none"
     clip-path="url(#cpMTAuNDYwOHw0OTcuMDI2fDU0My45Mzl8Ni45NzM4NQ==)"
     id="polyline83"
     transform="matrix(0.04329004,0,0,0.04329004,0,-2.5067139e-6)" />
  <polyline
     points="247.86,375.77 248.45,363.13 249.04,360.76 260.21,362.34 260.21,356.03 272.57,356.03 273.15,348.92 283.74,349.71 283.74,356.82 294.92,357.60 294.92,360.76 305.51,362.34 304.92,374.19 294.33,373.40 293.15,386.04 270.80,384.46 270.21,387.62 258.45,386.83 257.86,389.20 246.68,388.41 247.86,375.77 "
     style="fill:#808080;stroke:#000000;stroke-width:2.31000018;stroke-linecap:round;stroke-linejoin:round;stroke-miterlimit:10;stroke-dasharray:none"
     clip-path="url(#cpMTAuNDYwOHw0OTcuMDI2fDU0My45Mzl8Ni45NzM4NQ==)"
     id="polyline85"
     transform="matrix(0.04329004,0,0,0.04329004,0,-2.5067139e-6)" />
  <polyline
     points="309.04,209.11 358.44,209.11 358.44,213.06 356.09,213.06 356.09,213.85 356.09,214.64 357.27,214.64 356.68,239.12 352.56,240.70 303.74,237.54 304.33,221.74 299.04,222.53 299.04,209.11 309.04,209.11 "
     style="fill:#ffffff;stroke:#000000;stroke-width:2.31000018;stroke-linecap:round;stroke-linejoin:round;stroke-miterlimit:10;stroke-dasharray:none"
     clip-path="url(#cpMTAuNDYwOHw0OTcuMDI2fDU0My45Mzl8Ni45NzM4NQ==)"
     id="polyline87"
     transform="matrix(0.04329004,0,0,0.04329004,0,-2.5067139e-6)" />
  <polyline
     points="277.27,164.08 247.86,164.08 236.69,164.08 236.10,129.33 236.10,123.01 286.68,122.22 286.68,153.81 277.86,153.81 277.27,164.08 "
     style="fill:#999999;stroke:#000000;stroke-width:2.31000018;stroke-linecap:round;stroke-linejoin:round;stroke-miterlimit:10;stroke-dasharray:none"
     clip-path="url(#cpMTAuNDYwOHw0OTcuMDI2fDU0My45Mzl8Ni45NzM4NQ==)"
     id="polyline89"
     transform="matrix(0.04329004,0,0,0.04329004,0,-2.5067139e-6)" />
  <polyline
     points="244.92,409.74 256.68,410.53 256.10,412.11 268.45,413.69 268.45,419.22 280.21,420.01 278.45,434.22 275.51,459.50 263.15,458.71 263.74,460.29 256.10,459.50 244.92,457.92 245.51,447.65 240.22,446.07 242.57,416.06 244.92,416.06 244.92,409.74 "
     style="fill:#808080;stroke:#000000;stroke-width:2.31000018;stroke-linecap:round;stroke-linejoin:round;stroke-miterlimit:10;stroke-dasharray:none"
     clip-path="url(#cpMTAuNDYwOHw0OTcuMDI2fDU0My45Mzl8Ni45NzM4NQ==)"
     id="polyline91"
     transform="matrix(0.04329004,0,0,0.04329004,0,-2.5067139e-6)" />
  <polyline
     points="431.38,242.28 431.38,236.75 434.32,236.75 434.32,224.90 439.62,224.90 439.62,218.58 451.97,218.58 451.97,220.16 458.44,221.74 463.73,233.59 464.91,238.33 463.15,243.07 463.15,246.23 463.15,250.18 464.32,256.50 464.32,259.66 462.56,264.40 459.62,269.14 456.67,275.46 454.91,280.20 449.62,278.62 449.03,280.20 437.85,278.62 439.62,242.28 431.38,242.28 "
     style="fill:#e6e6e6;stroke:#000000;stroke-width:2.31000018;stroke-linecap:round;stroke-linejoin:round;stroke-miterlimit:10;stroke-dasharray:none"
     clip-path="url(#cpMTAuNDYwOHw0OTcuMDI2fDU0My45Mzl8Ni45NzM4NQ==)"
     id="polyline93"
     transform="matrix(0.04329004,0,0,0.04329004,0,-2.5067139e-6)" />
  <polyline
     points="303.74,237.54 301.39,268.35 272.57,266.77 272.57,264.40 246.68,262.03 247.27,251.76 257.27,251.76 259.04,228.06 257.27,227.27 257.27,224.90 259.04,224.90 268.45,224.90 280.80,224.90 287.86,224.90 299.04,222.53 304.33,221.74 303.74,237.54 "
     style="fill:#b3b3b3;stroke:#000000;stroke-width:2.31000018;stroke-linecap:round;stroke-linejoin:round;stroke-miterlimit:10;stroke-dasharray:none"
     clip-path="url(#cpMTAuNDYwOHw0OTcuMDI2fDU0My45Mzl8Ni45NzM4NQ==)"
     id="polyline95"
     transform="matrix(0.04329004,0,0,0.04329004,0,-2.5067139e-6)" />
  <polyline
     points="384.91,84.30 375.50,83.51 375.50,76.40 387.85,65.35 390.21,59.82 396.68,58.24 408.44,55.08 414.32,49.55 420.80,46.39 424.32,46.39 423.74,63.77 414.91,63.77 414.32,73.25 394.91,74.03 394.33,84.30 384.91,84.30 "
     style="fill:#ececec;stroke:#000000;stroke-width:2.31000018;stroke-linecap:round;stroke-linejoin:round;stroke-miterlimit:10;stroke-dasharray:none"
     clip-path="url(#cpMTAuNDYwOHw0OTcuMDI2fDU0My45Mzl8Ni45NzM4NQ==)"
     id="polyline97"
     transform="matrix(0.04329004,0,0,0.04329004,0,-2.5067139e-6)" />
  <polyline
     points="256.10,459.50 263.74,460.29 263.15,468.98 272.57,469.77 272.57,473.72 274.33,474.51 274.33,482.41 286.10,483.20 285.51,495.84 292.57,497.42 288.45,514.00 271.39,519.53 263.74,519.53 263.15,517.95 261.98,516.37 259.04,511.63 256.68,506.89 250.21,500.57 240.22,496.63 246.68,492.68 244.92,487.15 244.33,483.99 244.92,480.83 251.39,481.62 251.98,471.35 254.33,471.35 256.10,459.50 "
     style="fill:#e6e6e6;stroke:#000000;stroke-width:2.31000018;stroke-linecap:round;stroke-linejoin:round;stroke-miterlimit:10;stroke-dasharray:none"
     clip-path="url(#cpMTAuNDYwOHw0OTcuMDI2fDU0My45Mzl8Ni45NzM4NQ==)"
     id="polyline99"
     transform="matrix(0.04329004,0,0,0.04329004,0,-2.5067139e-6)" />
  <polyline
     points="275.51,312.58 244.33,311.00 245.51,283.36 246.68,262.03 272.57,264.40 272.57,266.77 301.39,268.35 303.74,268.35 302.56,277.04 301.39,307.84 298.45,307.05 297.86,314.16 275.51,312.58 "
     style="fill:#ececec;stroke:#000000;stroke-width:2.31000018;stroke-linecap:round;stroke-linejoin:round;stroke-miterlimit:10;stroke-dasharray:none"
     clip-path="url(#cpMTAuNDYwOHw0OTcuMDI2fDU0My45Mzl8Ni45NzM4NQ==)"
     id="polyline101"
     transform="matrix(0.04329004,0,0,0.04329004,0,-2.5067139e-6)" />
  <polyline
     points="117.87,235.96 117.87,228.06 129.63,228.85 148.45,228.85 166.10,232.80 162.57,269.14 139.04,266.77 137.87,265.98 114.93,264.40 115.51,260.45 116.69,261.24 117.28,248.60 117.87,248.60 117.87,235.96 "
     style="fill:#ffffff;stroke:#000000;stroke-width:2.31000018;stroke-linecap:round;stroke-linejoin:round;stroke-miterlimit:10;stroke-dasharray:none"
     clip-path="url(#cpMTAuNDYwOHw0OTcuMDI2fDU0My45Mzl8Ni45NzM4NQ==)"
     id="polyline103"
     transform="matrix(0.04329004,0,0,0.04329004,0,-2.5067139e-6)" />
  <polyline
     points="286.68,122.22 286.10,105.63 292.57,104.05 304.33,100.10 316.09,94.57 326.09,95.36 324.92,114.32 335.50,114.32 335.50,124.59 325.50,124.59 325.50,134.86 315.51,134.86 315.51,145.12 305.51,145.12 304.92,154.60 286.68,153.81 286.68,122.22 "
     style="fill:#999999;stroke:#000000;stroke-width:2.31000018;stroke-linecap:round;stroke-linejoin:round;stroke-miterlimit:10;stroke-dasharray:none"
     clip-path="url(#cpMTAuNDYwOHw0OTcuMDI2fDU0My45Mzl8Ni45NzM4NQ==)"
     id="polyline105"
     transform="matrix(0.04329004,0,0,0.04329004,0,-2.5067139e-6)" />
  <polyline
     points="127.87,96.94 127.87,77.98 129.04,77.98 128.46,62.98 140.22,62.98 173.75,61.40 171.39,65.35 168.45,73.25 171.39,70.88 174.92,69.30 179.04,68.51 181.98,68.51 183.75,66.14 186.10,66.14 190.22,70.09 193.75,74.03 197.86,75.62 202.57,77.19 176.10,78.77 159.63,78.77 157.28,82.72 150.22,87.46 146.69,90.62 146.10,92.99 142.57,96.94 137.87,102.47 131.98,105.63 128.46,105.63 127.87,96.94 "
     style="fill:#e6e6e6;stroke:#000000;stroke-width:2.31000018;stroke-linecap:round;stroke-linejoin:round;stroke-miterlimit:10;stroke-dasharray:none"
     clip-path="url(#cpMTAuNDYwOHw0OTcuMDI2fDU0My45Mzl8Ni45NzM4NQ==)"
     id="polyline107"
     transform="matrix(0.04329004,0,0,0.04329004,0,-2.5067139e-6)" />
  <polyline
     points="153.16,341.81 153.75,333.12 159.04,333.91 166.69,300.73 167.28,286.51 198.45,288.09 198.45,294.41 193.75,294.41 193.16,298.36 193.75,304.68 194.33,308.63 197.28,312.58 194.33,313.37 194.92,328.38 194.33,344.18 153.16,341.81 "
     style="fill:#ffffff;stroke:#000000;stroke-width:2.31000018;stroke-linecap:round;stroke-linejoin:round;stroke-miterlimit:10;stroke-dasharray:none"
     clip-path="url(#cpMTAuNDYwOHw0OTcuMDI2fDU0My45Mzl8Ni45NzM4NQ==)"
     id="polyline109"
     transform="matrix(0.04329004,0,0,0.04329004,0,-2.5067139e-6)" />
  <polyline
     points="424.91,145.12 473.73,146.71 474.32,147.49 474.91,177.51 444.91,176.72 444.32,173.56 436.68,172.77 436.68,176.72 416.68,176.72 416.68,164.08 424.91,163.29 424.91,145.12 "
     style="fill:#e6e6e6;stroke:#000000;stroke-width:2.31000018;stroke-linecap:round;stroke-linejoin:round;stroke-miterlimit:10;stroke-dasharray:none"
     clip-path="url(#cpMTAuNDYwOHw0OTcuMDI2fDU0My45Mzl8Ni45NzM4NQ==)"
     id="polyline111"
     transform="matrix(0.04329004,0,0,0.04329004,0,-2.5067139e-6)" />
  <polyline
     points="176.69,231.22 176.10,206.74 188.45,205.95 189.04,204.37 208.45,204.37 234.92,204.37 234.92,211.48 224.92,211.48 224.33,233.59 217.27,235.17 217.27,243.07 194.33,240.70 193.75,230.43 176.69,231.22 "
     style="fill:#f2f2f2;stroke:#000000;stroke-width:2.31000018;stroke-linecap:round;stroke-linejoin:round;stroke-miterlimit:10;stroke-dasharray:none"
     clip-path="url(#cpMTAuNDYwOHw0OTcuMDI2fDU0My45Mzl8Ni45NzM4NQ==)"
     id="polyline113"
     transform="matrix(0.04329004,0,0,0.04329004,0,-2.5067139e-6)" />
  <polyline
     points="354.91,164.08 309.04,164.08 304.92,164.08 304.92,154.60 305.51,145.12 315.51,145.12 315.51,134.86 325.50,134.86 325.50,124.59 335.50,124.59 355.50,125.38 354.91,164.08 "
     style="fill:#cccccc;stroke:#000000;stroke-width:2.31000018;stroke-linecap:round;stroke-linejoin:round;stroke-miterlimit:10;stroke-dasharray:none"
     clip-path="url(#cpMTAuNDYwOHw0OTcuMDI2fDU0My45Mzl8Ni45NzM4NQ==)"
     id="polyline115"
     transform="matrix(0.04329004,0,0,0.04329004,0,-2.5067139e-6)" />
  <polyline
     points="347.27,424.75 345.50,427.91 340.21,428.69 340.21,432.64 344.92,437.38 344.33,442.91 345.50,448.44 340.21,447.65 337.86,447.65 335.50,453.97 332.56,455.55 330.21,455.55 329.03,455.55 330.80,450.81 331.39,446.07 329.03,442.12 323.15,439.75 319.03,436.59 313.74,440.54 289.62,436.59 289.62,435.80 291.98,411.32 294.33,411.32 347.86,414.48 347.27,424.75 "
     style="fill:#e6e6e6;stroke:#000000;stroke-width:2.31000018;stroke-linecap:round;stroke-linejoin:round;stroke-miterlimit:10;stroke-dasharray:none"
     clip-path="url(#cpMTAuNDYwOHw0OTcuMDI2fDU0My45Mzl8Ni45NzM4NQ==)"
     id="polyline117"
     transform="matrix(0.04329004,0,0,0.04329004,0,-2.5067139e-6)" />
  <polyline
     points="33.17,254.13 33.75,224.90 33.17,201.21 69.63,202.00 69.05,209.11 69.63,254.13 33.17,254.13 "
     style="fill:#ffffff;stroke:#000000;stroke-width:2.31000018;stroke-linecap:round;stroke-linejoin:round;stroke-miterlimit:10;stroke-dasharray:none"
     clip-path="url(#cpMTAuNDYwOHw0OTcuMDI2fDU0My45Mzl8Ni45NzM4NQ==)"
     id="polyline119"
     transform="matrix(0.04329004,0,0,0.04329004,0,-2.5067139e-6)" />
  <polyline
     points="72.58,312.58 72.58,274.67 92.57,274.67 114.34,277.04 113.75,295.99 111.40,318.90 100.22,317.32 99.63,316.53 100.22,312.58 72.58,312.58 "
     style="fill:#ffffff;stroke:#000000;stroke-width:2.31000018;stroke-linecap:round;stroke-linejoin:round;stroke-miterlimit:10;stroke-dasharray:none"
     clip-path="url(#cpMTAuNDYwOHw0OTcuMDI2fDU0My45Mzl8Ni45NzM4NQ==)"
     id="polyline121"
     transform="matrix(0.04329004,0,0,0.04329004,0,-2.5067139e-6)" />
  <polyline
     points="442.56,322.06 442.56,326.80 439.62,333.12 441.38,339.44 441.38,341.02 439.03,344.18 436.68,352.87 433.15,355.23 426.09,358.39 421.97,363.92 421.97,359.97 399.03,358.39 399.03,355.23 395.50,355.23 396.68,341.81 392.56,341.02 393.15,318.90 401.38,318.90 442.56,322.06 "
     style="fill:#cccccc;stroke:#000000;stroke-width:2.31000018;stroke-linecap:round;stroke-linejoin:round;stroke-miterlimit:10;stroke-dasharray:none"
     clip-path="url(#cpMTAuNDYwOHw0OTcuMDI2fDU0My45Mzl8Ni45NzM4NQ==)"
     id="polyline123"
     transform="matrix(0.04329004,0,0,0.04329004,0,-2.5067139e-6)" />
  <polyline
     points="72.58,312.58 100.22,312.58 99.63,316.53 100.22,317.32 111.40,318.90 110.81,322.85 110.81,324.43 106.69,324.43 103.75,359.97 80.81,358.39 67.28,358.39 66.69,314.16 72.58,312.58 "
     style="fill:#ffffff;stroke:#000000;stroke-width:2.31000018;stroke-linecap:round;stroke-linejoin:round;stroke-miterlimit:10;stroke-dasharray:none"
     clip-path="url(#cpMTAuNDYwOHw0OTcuMDI2fDU0My45Mzl8Ni45NzM4NQ==)"
     id="polyline125"
     transform="matrix(0.04329004,0,0,0.04329004,0,-2.5067139e-6)" />
  <polyline
     points="353.15,334.70 359.03,336.28 359.03,345.76 365.50,345.76 364.92,357.60 353.15,357.60 351.39,358.39 351.39,360.76 350.80,363.92 351.97,365.50 351.39,371.03 347.86,370.24 347.27,370.24 340.80,369.45 340.21,375.77 339.03,376.56 316.09,375.77 317.27,362.34 319.62,340.23 313.74,339.44 314.33,333.12 353.15,334.70 "
     style="fill:#e6e6e6;stroke:#000000;stroke-width:2.31000018;stroke-linecap:round;stroke-linejoin:round;stroke-miterlimit:10;stroke-dasharray:none"
     clip-path="url(#cpMTAuNDYwOHw0OTcuMDI2fDU0My45Mzl8Ni45NzM4NQ==)"
     id="polyline127"
     transform="matrix(0.04329004,0,0,0.04329004,0,-2.5067139e-6)" />
  <polyline
     points="234.92,204.37 234.92,202.00 247.86,202.79 259.04,202.00 259.04,209.11 257.27,209.11 257.27,212.27 259.04,211.48 259.04,224.90 257.27,224.90 257.27,227.27 259.04,228.06 257.27,251.76 247.27,251.76 227.27,251.76 227.27,243.86 217.86,243.07 217.27,243.07 217.27,235.17 224.33,233.59 224.92,211.48 234.92,211.48 234.92,204.37 "
     style="fill:#cccccc;stroke:#000000;stroke-width:2.31000018;stroke-linecap:round;stroke-linejoin:round;stroke-miterlimit:10;stroke-dasharray:none"
     clip-path="url(#cpMTAuNDYwOHw0OTcuMDI2fDU0My45Mzl8Ni45NzM4NQ==)"
     id="polyline129"
     transform="matrix(0.04329004,0,0,0.04329004,0,-2.5067139e-6)" />
  <polyline
     points="353.74,323.64 353.15,334.70 314.33,333.12 315.51,328.38 304.33,326.80 304.92,314.16 297.86,314.16 298.45,307.05 301.39,307.84 302.56,277.04 351.39,280.20 350.80,310.21 354.33,310.21 353.74,323.64 "
     style="fill:#b3b3b3;stroke:#000000;stroke-width:2.31000018;stroke-linecap:round;stroke-linejoin:round;stroke-miterlimit:10;stroke-dasharray:none"
     clip-path="url(#cpMTAuNDYwOHw0OTcuMDI2fDU0My45Mzl8Ni45NzM4NQ==)"
     id="polyline131"
     transform="matrix(0.04329004,0,0,0.04329004,0,-2.5067139e-6)" />
  <polyline
     points="353.74,323.64 365.50,322.85 366.09,314.95 377.86,314.95 378.44,312.58 386.68,312.58 386.68,307.84 401.38,307.84 401.38,318.90 393.15,318.90 392.56,341.02 396.68,341.81 395.50,355.23 395.50,357.60 390.21,356.82 389.62,356.03 385.50,355.23 384.91,353.66 382.56,353.66 382.56,352.08 379.03,352.08 378.44,349.71 376.68,348.92 376.68,358.39 364.92,357.60 365.50,345.76 359.03,345.76 359.03,336.28 353.15,334.70 353.74,323.64 "
     style="fill:#cccccc;stroke:#000000;stroke-width:2.31000018;stroke-linecap:round;stroke-linejoin:round;stroke-miterlimit:10;stroke-dasharray:none"
     clip-path="url(#cpMTAuNDYwOHw0OTcuMDI2fDU0My45Mzl8Ni45NzM4NQ==)"
     id="polyline133"
     transform="matrix(0.04329004,0,0,0.04329004,0,-2.5067139e-6)" />
  <polyline
     points="176.10,78.77 202.57,77.19 206.69,77.98 211.98,81.14 216.10,85.09 221.39,89.04 225.51,90.62 231.39,90.62 234.33,89.04 234.92,82.72 239.63,82.72 240.22,85.09 241.39,89.04 247.27,89.04 248.45,89.83 247.27,92.20 244.33,93.78 224.92,96.94 221.98,100.10 219.63,100.10 217.27,100.10 214.92,100.89 184.92,100.10 183.75,93.78 176.10,94.57 176.10,78.77 "
     style="fill:#e6e6e6;stroke:#000000;stroke-width:2.31000018;stroke-linecap:round;stroke-linejoin:round;stroke-miterlimit:10;stroke-dasharray:none"
     clip-path="url(#cpMTAuNDYwOHw0OTcuMDI2fDU0My45Mzl8Ni45NzM4NQ==)"
     id="polyline135"
     transform="matrix(0.04329004,0,0,0.04329004,0,-2.5067139e-6)" />
  <polyline
     points="34.34,165.66 34.34,129.33 69.05,129.33 69.63,134.07 80.81,134.86 80.81,141.18 80.22,165.66 75.52,165.66 34.34,165.66 "
     style="fill:#e6e6e6;stroke:#000000;stroke-width:2.31000018;stroke-linecap:round;stroke-linejoin:round;stroke-miterlimit:10;stroke-dasharray:none"
     clip-path="url(#cpMTAuNDYwOHw0OTcuMDI2fDU0My45Mzl8Ni45NzM4NQ==)"
     id="polyline137"
     transform="matrix(0.04329004,0,0,0.04329004,0,-2.5067139e-6)" />
  <polyline
     points="283.74,349.71 284.33,337.07 281.39,337.07 281.98,325.22 274.33,324.43 275.51,312.58 297.86,314.16 304.92,314.16 304.33,326.80 315.51,328.38 314.33,333.12 313.74,339.44 319.62,340.23 317.27,362.34 305.51,362.34 294.92,360.76 294.92,357.60 283.74,356.82 283.74,349.71 "
     style="fill:#e6e6e6;stroke:#000000;stroke-width:2.31000018;stroke-linecap:round;stroke-linejoin:round;stroke-miterlimit:10;stroke-dasharray:none"
     clip-path="url(#cpMTAuNDYwOHw0OTcuMDI2fDU0My45Mzl8Ni45NzM4NQ==)"
     id="polyline139"
     transform="matrix(0.04329004,0,0,0.04329004,0,-2.5067139e-6)" />
  <polyline
     points="248.45,363.13 247.86,375.77 220.80,372.61 221.39,370.24 192.57,369.45 194.33,344.18 194.92,328.38 238.45,330.75 237.27,362.34 248.45,363.13 "
     style="fill:#ececec;stroke:#000000;stroke-width:2.31000018;stroke-linecap:round;stroke-linejoin:round;stroke-miterlimit:10;stroke-dasharray:none"
     clip-path="url(#cpMTAuNDYwOHw0OTcuMDI2fDU0My45Mzl8Ni45NzM4NQ==)"
     id="polyline141"
     transform="matrix(0.04329004,0,0,0.04329004,0,-2.5067139e-6)" />
  <polyline
     points="181.39,431.85 183.75,412.11 242.57,416.06 240.22,446.07 197.86,443.70 198.45,439.75 193.16,438.17 188.45,433.43 187.86,431.85 181.39,431.85 "
     style="fill:#cccccc;stroke:#000000;stroke-width:2.31000018;stroke-linecap:round;stroke-linejoin:round;stroke-miterlimit:10;stroke-dasharray:none"
     clip-path="url(#cpMTAuNDYwOHw0OTcuMDI2fDU0My45Mzl8Ni45NzM4NQ==)"
     id="polyline143"
     transform="matrix(0.04329004,0,0,0.04329004,0,-2.5067139e-6)" />
  <polyline
     points="424.32,114.32 424.91,145.12 424.91,163.29 416.68,164.08 384.33,164.87 384.33,114.32 424.32,114.32 "
     style="fill:#e6e6e6;stroke:#000000;stroke-width:2.31000018;stroke-linecap:round;stroke-linejoin:round;stroke-miterlimit:10;stroke-dasharray:none"
     clip-path="url(#cpMTAuNDYwOHw0OTcuMDI2fDU0My45Mzl8Ni45NzM4NQ==)"
     id="polyline145"
     transform="matrix(0.04329004,0,0,0.04329004,0,-2.5067139e-6)" />
  <polyline
     points="67.28,358.39 67.28,360.76 32.58,361.55 32.58,339.44 32.58,312.58 66.69,314.16 67.28,358.39 "
     style="fill:#ffffff;stroke:#000000;stroke-width:2.31000018;stroke-linecap:round;stroke-linejoin:round;stroke-miterlimit:10;stroke-dasharray:none"
     clip-path="url(#cpMTAuNDYwOHw0OTcuMDI2fDU0My45Mzl8Ni45NzM4NQ==)"
     id="polyline147"
     transform="matrix(0.04329004,0,0,0.04329004,0,-2.5067139e-6)" />
  <polyline
     points="75.52,165.66 80.22,165.66 80.81,141.18 92.57,141.18 129.04,141.18 129.04,175.14 117.28,174.35 117.28,176.72 104.93,177.51 104.93,183.04 80.81,184.62 80.22,178.30 75.52,177.51 75.52,165.66 "
     style="fill:#e6e6e6;stroke:#000000;stroke-width:2.31000018;stroke-linecap:round;stroke-linejoin:round;stroke-miterlimit:10;stroke-dasharray:none"
     clip-path="url(#cpMTAuNDYwOHw0OTcuMDI2fDU0My45Mzl8Ni45NzM4NQ==)"
     id="polyline149"
     transform="matrix(0.04329004,0,0,0.04329004,0,-2.5067139e-6)" />
  <polyline
     points="247.86,164.08 277.27,164.08 280.21,164.08 280.21,188.57 280.80,190.15 282.57,191.73 282.57,199.63 287.86,201.21 287.86,224.90 280.80,224.90 268.45,224.90 259.04,224.90 259.04,211.48 257.27,212.27 257.27,209.11 259.04,209.11 259.04,202.00 247.86,202.79 247.86,164.08 "
     style="fill:#b3b3b3;stroke:#000000;stroke-width:2.31000018;stroke-linecap:round;stroke-linejoin:round;stroke-miterlimit:10;stroke-dasharray:none"
     clip-path="url(#cpMTAuNDYwOHw0OTcuMDI2fDU0My45Mzl8Ni45NzM4NQ==)"
     id="polyline151"
     transform="matrix(0.04329004,0,0,0.04329004,0,-2.5067139e-6)" />
  <polyline
     points="246.68,388.41 244.92,409.74 244.92,416.06 242.57,416.06 183.75,412.11 183.75,405.00 183.75,404.21 182.57,404.21 181.39,405.00 180.22,405.00 179.04,401.05 179.63,400.26 180.22,393.94 181.39,389.99 181.98,387.62 187.86,377.35 192.57,369.45 221.39,370.24 220.80,372.61 247.86,375.77 246.68,388.41 "
     style="fill:#ececec;stroke:#000000;stroke-width:2.31000018;stroke-linecap:round;stroke-linejoin:round;stroke-miterlimit:10;stroke-dasharray:none"
     clip-path="url(#cpMTAuNDYwOHw0OTcuMDI2fDU0My45Mzl8Ni45NzM4NQ==)"
     id="polyline153"
     transform="matrix(0.04329004,0,0,0.04329004,0,-2.5067139e-6)" />
  <polyline
     points="176.10,94.57 183.75,93.78 184.92,100.10 214.92,100.89 217.27,100.10 219.63,100.10 221.98,100.10 221.39,101.68 225.51,105.63 229.04,104.05 233.16,105.63 235.51,105.63 236.10,123.01 236.10,129.33 176.10,129.33 176.10,94.57 "
     style="fill:#ffffff;stroke:#000000;stroke-width:2.31000018;stroke-linecap:round;stroke-linejoin:round;stroke-miterlimit:10;stroke-dasharray:none"
     clip-path="url(#cpMTAuNDYwOHw0OTcuMDI2fDU0My45Mzl8Ni45NzM4NQ==)"
     id="polyline155"
     transform="matrix(0.04329004,0,0,0.04329004,0,-2.5067139e-6)" />
  <polyline
     points="193.75,490.31 193.16,438.17 198.45,439.75 197.86,443.70 240.22,446.07 245.51,447.65 244.92,457.92 256.10,459.50 254.33,471.35 251.98,471.35 251.39,481.62 244.92,480.83 244.33,483.99 244.92,487.15 246.68,492.68 240.22,496.63 235.51,493.47 234.92,486.36 233.16,482.41 230.80,474.51 227.27,473.72 217.86,479.25 209.04,483.99 205.51,490.31 199.04,489.52 193.75,490.31 "
     style="fill:#cccccc;stroke:#000000;stroke-width:2.31000018;stroke-linecap:round;stroke-linejoin:round;stroke-miterlimit:10;stroke-dasharray:none"
     clip-path="url(#cpMTAuNDYwOHw0OTcuMDI2fDU0My45Mzl8Ni45NzM4NQ==)"
     id="polyline157"
     transform="matrix(0.04329004,0,0,0.04329004,0,-2.5067139e-6)" />
  <polyline
     points="176.69,164.87 176.10,140.39 176.10,129.33 236.10,129.33 236.69,164.08 234.92,163.29 234.33,164.87 208.45,164.87 176.69,164.87 "
     style="fill:#e6e6e6;stroke:#000000;stroke-width:2.31000018;stroke-linecap:round;stroke-linejoin:round;stroke-miterlimit:10;stroke-dasharray:none"
     clip-path="url(#cpMTAuNDYwOHw0OTcuMDI2fDU0My45Mzl8Ni45NzM4NQ==)"
     id="polyline159"
     transform="matrix(0.04329004,0,0,0.04329004,0,-2.5067139e-6)" />
  <polyline
     points="71.40,253.34 71.40,250.18 80.81,250.18 80.81,235.96 117.87,235.96 117.87,248.60 117.28,248.60 116.69,261.24 115.51,260.45 114.93,264.40 114.34,277.04 92.57,274.67 72.58,274.67 71.40,253.34 "
     style="fill:#ffffff;stroke:#000000;stroke-width:2.31000018;stroke-linecap:round;stroke-linejoin:round;stroke-miterlimit:10;stroke-dasharray:none"
     clip-path="url(#cpMTAuNDYwOHw0OTcuMDI2fDU0My45Mzl8Ni45NzM4NQ==)"
     id="polyline161"
     transform="matrix(0.04329004,0,0,0.04329004,0,-2.5067139e-6)" />
  <polyline
     points="358.44,209.11 358.44,176.72 381.97,175.14 382.56,164.87 384.33,164.87 416.68,164.08 416.68,176.72 416.68,201.21 404.32,201.21 403.74,201.21 400.21,201.21 400.21,210.69 392.56,210.69 377.86,209.90 377.27,209.11 376.09,207.53 375.50,209.11 373.74,210.69 358.44,213.06 358.44,209.11 "
     style="fill:#ffffff;stroke:#000000;stroke-width:2.31000018;stroke-linecap:round;stroke-linejoin:round;stroke-miterlimit:10;stroke-dasharray:none"
     clip-path="url(#cpMTAuNDYwOHw0OTcuMDI2fDU0My45Mzl8Ni45NzM4NQ==)"
     id="polyline163"
     transform="matrix(0.04329004,0,0,0.04329004,0,-2.5067139e-6)" />
  <polyline
     points="355.50,125.38 367.86,124.59 363.74,113.53 384.33,114.32 384.33,164.87 382.56,164.87 381.97,175.14 358.44,176.72 359.03,164.08 354.91,164.08 355.50,125.38 "
     style="fill:#cccccc;stroke:#000000;stroke-width:2.31000018;stroke-linecap:round;stroke-linejoin:round;stroke-miterlimit:10;stroke-dasharray:none"
     clip-path="url(#cpMTAuNDYwOHw0OTcuMDI2fDU0My45Mzl8Ni45NzM4NQ==)"
     id="polyline165"
     transform="matrix(0.04329004,0,0,0.04329004,0,-2.5067139e-6)" />
  <polyline
     points="473.73,146.71 424.91,145.12 424.32,114.32 424.32,95.36 473.14,96.15 473.73,98.52 473.73,146.71 "
     style="fill:#999999;stroke:#000000;stroke-width:2.31000018;stroke-linecap:round;stroke-linejoin:round;stroke-miterlimit:10;stroke-dasharray:none"
     clip-path="url(#cpMTAuNDYwOHw0OTcuMDI2fDU0My45Mzl8Ni45NzM4NQ==)"
     id="polyline167"
     transform="matrix(0.04329004,0,0,0.04329004,0,-2.5067139e-6)" />
  <polyline
     points="390.21,272.30 360.80,269.93 361.97,250.18 351.97,249.39 352.56,240.70 356.68,239.12 357.27,214.64 356.09,214.64 356.09,213.85 356.09,213.06 358.44,213.06 373.74,210.69 375.50,209.11 376.09,207.53 377.27,209.11 377.86,209.90 392.56,210.69 391.97,222.53 398.44,223.32 397.27,240.70 396.09,258.87 390.80,258.87 390.21,272.30 "
     style="fill:#b3b3b3;stroke:#000000;stroke-width:2.31000018;stroke-linecap:round;stroke-linejoin:round;stroke-miterlimit:10;stroke-dasharray:none"
     clip-path="url(#cpMTAuNDYwOHw0OTcuMDI2fDU0My45Mzl8Ni45NzM4NQ==)"
     id="polyline169"
     transform="matrix(0.04329004,0,0,0.04329004,0,-2.5067139e-6)" />
  <polyline
     points="198.45,288.09 167.28,286.51 168.45,269.93 162.57,269.14 166.10,232.80 176.69,231.22 193.75,230.43 194.33,240.70 194.33,266.77 201.98,267.56 201.98,281.78 201.98,286.51 198.45,288.09 "
     style="fill:#b3b3b3;stroke:#000000;stroke-width:2.31000018;stroke-linecap:round;stroke-linejoin:round;stroke-miterlimit:10;stroke-dasharray:none"
     clip-path="url(#cpMTAuNDYwOHw0OTcuMDI2fDU0My45Mzl8Ni45NzM4NQ==)"
     id="polyline171"
     transform="matrix(0.04329004,0,0,0.04329004,0,-2.5067139e-6)" />
  <polyline
     points="34.34,165.66 75.52,165.66 75.52,177.51 80.22,178.30 80.81,184.62 80.81,189.36 75.52,189.36 76.10,209.11 69.05,209.11 69.63,202.00 33.17,201.21 33.75,174.35 34.34,165.66 "
     style="fill:#ffffff;stroke:#000000;stroke-width:2.31000018;stroke-linecap:round;stroke-linejoin:round;stroke-miterlimit:10;stroke-dasharray:none"
     clip-path="url(#cpMTAuNDYwOHw0OTcuMDI2fDU0My45Mzl8Ni45NzM4NQ==)"
     id="polyline173"
     transform="matrix(0.04329004,0,0,0.04329004,0,-2.5067139e-6)" />
  <polyline
     points="244.92,409.74 246.68,388.41 257.86,389.20 258.45,386.83 270.21,387.62 270.80,384.46 293.15,386.04 291.98,398.68 295.51,400.26 294.33,411.32 291.98,411.32 289.62,435.80 278.45,434.22 280.21,420.01 268.45,419.22 268.45,413.69 256.10,412.11 256.68,410.53 244.92,409.74 "
     style="fill:#999999;stroke:#000000;stroke-width:2.31000018;stroke-linecap:round;stroke-linejoin:round;stroke-miterlimit:10;stroke-dasharray:none"
     clip-path="url(#cpMTAuNDYwOHw0OTcuMDI2fDU0My45Mzl8Ni45NzM4NQ==)"
     id="polyline175"
     transform="matrix(0.04329004,0,0,0.04329004,0,-2.5067139e-6)" />
  <polyline
     points="103.75,359.97 119.04,360.76 115.51,404.21 90.81,402.63 90.81,400.26 81.40,400.26 82.58,363.13 80.81,363.13 80.81,358.39 103.75,359.97 "
     style="fill:#ffffff;stroke:#000000;stroke-width:2.31000018;stroke-linecap:round;stroke-linejoin:round;stroke-miterlimit:10;stroke-dasharray:none"
     clip-path="url(#cpMTAuNDYwOHw0OTcuMDI2fDU0My45Mzl8Ni45NzM4NQ==)"
     id="polyline177"
     transform="matrix(0.04329004,0,0,0.04329004,0,-2.5067139e-6)" />
  <polyline
     points="421.97,363.92 413.74,374.19 410.79,376.56 407.85,378.93 400.80,385.25 394.33,387.62 387.27,390.78 384.91,389.99 383.15,386.04 378.44,383.67 375.50,384.46 367.86,391.57 366.68,396.31 364.33,401.84 356.68,401.05 353.74,402.63 352.56,408.16 349.62,409.74 350.80,401.05 341.97,400.26 341.39,396.31 339.62,396.31 339.62,393.94 337.86,393.94 339.03,376.56 340.21,375.77 340.80,369.45 347.27,370.24 347.86,370.24 351.39,371.03 351.97,365.50 350.80,363.92 351.39,360.76 351.39,358.39 353.15,357.60 364.92,357.60 376.68,358.39 376.68,348.92 378.44,349.71 379.03,352.08 382.56,352.08 382.56,353.66 384.91,353.66 385.50,355.23 389.62,356.03 390.21,356.82 395.50,357.60 395.50,355.23 399.03,355.23 399.03,358.39 421.97,359.97 421.97,363.92 "
     style="fill:#b3b3b3;stroke:#000000;stroke-width:2.31000018;stroke-linecap:round;stroke-linejoin:round;stroke-miterlimit:10;stroke-dasharray:none"
     clip-path="url(#cpMTAuNDYwOHw0OTcuMDI2fDU0My45Mzl8Ni45NzM4NQ==)"
     id="polyline179"
     transform="matrix(0.04329004,0,0,0.04329004,0,-2.5067139e-6)" />
  <polyline
     points="358.44,209.11 309.04,209.11 309.04,164.08 354.91,164.08 359.03,164.08 358.44,176.72 358.44,209.11 "
     style="fill:#e6e6e6;stroke:#000000;stroke-width:2.31000018;stroke-linecap:round;stroke-linejoin:round;stroke-miterlimit:10;stroke-dasharray:none"
     clip-path="url(#cpMTAuNDYwOHw0OTcuMDI2fDU0My45Mzl8Ni45NzM4NQ==)"
     id="polyline181"
     transform="matrix(0.04329004,0,0,0.04329004,0,-2.5067139e-6)" />
  <polyline
     points="34.93,66.93 75.52,65.35 76.10,77.98 78.46,77.98 78.46,92.20 81.99,92.99 81.40,97.73 81.40,105.63 34.93,105.63 34.93,90.62 34.93,66.93 "
     style="fill:#808080;stroke:#000000;stroke-width:2.31000018;stroke-linecap:round;stroke-linejoin:round;stroke-miterlimit:10;stroke-dasharray:none"
     clip-path="url(#cpMTAuNDYwOHw0OTcuMDI2fDU0My45Mzl8Ni45NzM4NQ==)"
     id="polyline183"
     transform="matrix(0.04329004,0,0,0.04329004,0,-2.5067139e-6)" />
  <polyline
     points="176.10,129.33 176.10,140.39 129.04,141.18 128.46,105.63 131.98,105.63 137.87,102.47 142.57,96.94 146.10,92.99 146.69,90.62 150.22,87.46 157.28,82.72 159.63,78.77 176.10,78.77 176.10,94.57 176.10,129.33 "
     style="fill:#ffffff;stroke:#000000;stroke-width:2.31000018;stroke-linecap:round;stroke-linejoin:round;stroke-miterlimit:10;stroke-dasharray:none"
     clip-path="url(#cpMTAuNDYwOHw0OTcuMDI2fDU0My45Mzl8Ni45NzM4NQ==)"
     id="polyline185"
     transform="matrix(0.04329004,0,0,0.04329004,0,-2.5067139e-6)" />
  <polyline
     points="208.45,164.87 209.04,188.57 209.04,187.78 209.04,191.73 209.04,193.31 208.45,204.37 189.04,204.37 188.45,205.95 176.10,206.74 174.92,206.74 174.92,204.37 169.04,204.37 169.04,188.57 166.69,188.57 166.69,176.72 169.04,176.72 169.63,169.61 171.39,169.61 171.39,164.08 176.69,164.87 208.45,164.87 "
     style="fill:#b3b3b3;stroke:#000000;stroke-width:2.31000018;stroke-linecap:round;stroke-linejoin:round;stroke-miterlimit:10;stroke-dasharray:none"
     clip-path="url(#cpMTAuNDYwOHw0OTcuMDI2fDU0My45Mzl8Ni45NzM4NQ==)"
     id="polyline187"
     transform="matrix(0.04329004,0,0,0.04329004,0,-2.5067139e-6)" />
  <polyline
     points="129.04,188.57 129.04,213.85 104.93,213.06 104.93,211.48 93.16,211.48 93.16,207.53 76.10,209.11 75.52,189.36 80.81,189.36 80.81,184.62 104.93,183.04 104.93,177.51 117.28,176.72 117.28,174.35 129.04,175.14 129.04,188.57 "
     style="fill:#999999;stroke:#000000;stroke-width:2.31000018;stroke-linecap:round;stroke-linejoin:round;stroke-miterlimit:10;stroke-dasharray:none"
     clip-path="url(#cpMTAuNDYwOHw0OTcuMDI2fDU0My45Mzl8Ni45NzM4NQ==)"
     id="polyline189"
     transform="matrix(0.04329004,0,0,0.04329004,0,-2.5067139e-6)" />
  <polyline
     points="129.63,228.85 117.87,228.06 117.87,235.96 80.81,235.96 80.81,250.18 71.40,250.18 71.40,253.34 69.63,254.13 69.05,209.11 76.10,209.11 93.16,207.53 93.16,211.48 104.93,211.48 104.93,213.06 129.04,213.85 129.63,228.85 "
     style="fill:#666666;stroke:#000000;stroke-width:2.31000018;stroke-linecap:round;stroke-linejoin:round;stroke-miterlimit:10;stroke-dasharray:none"
     clip-path="url(#cpMTAuNDYwOHw0OTcuMDI2fDU0My45Mzl8Ni45NzM4NQ==)"
     id="polyline191"
     transform="matrix(0.04329004,0,0,0.04329004,0,-2.5067139e-6)" />
  <polyline
     points="32.58,367.87 32.58,361.55 67.28,360.76 67.28,358.39 80.81,358.39 80.81,363.13 82.58,363.13 81.40,400.26 60.22,397.10 32.58,397.89 32.58,367.87 "
     style="fill:#999999;stroke:#000000;stroke-width:2.31000018;stroke-linecap:round;stroke-linejoin:round;stroke-miterlimit:10;stroke-dasharray:none"
     clip-path="url(#cpMTAuNDYwOHw0OTcuMDI2fDU0My45Mzl8Ni45NzM4NQ==)"
     id="polyline193"
     transform="matrix(0.04329004,0,0,0.04329004,0,-2.5067139e-6)" />
  <polyline
     points="167.28,286.51 166.69,300.73 113.75,295.99 114.34,277.04 114.93,264.40 137.87,265.98 139.04,266.77 162.57,269.14 168.45,269.93 167.28,286.51 "
     style="fill:#666666;stroke:#000000;stroke-width:2.31000018;stroke-linecap:round;stroke-linejoin:round;stroke-miterlimit:10;stroke-dasharray:none"
     clip-path="url(#cpMTAuNDYwOHw0OTcuMDI2fDU0My45Mzl8Ni45NzM4NQ==)"
     id="polyline195"
     transform="matrix(0.04329004,0,0,0.04329004,0,-2.5067139e-6)" />
  <polyline
     points="166.69,300.73 159.04,333.91 153.75,333.12 143.75,332.33 143.75,330.75 134.34,329.96 134.34,326.80 122.57,326.01 122.57,323.64 110.81,322.85 111.40,318.90 113.75,295.99 166.69,300.73 "
     style="fill:#666666;stroke:#000000;stroke-width:2.31000018;stroke-linecap:round;stroke-linejoin:round;stroke-miterlimit:10;stroke-dasharray:none"
     clip-path="url(#cpMTAuNDYwOHw0OTcuMDI2fDU0My45Mzl8Ni45NzM4NQ==)"
     id="polyline197"
     transform="matrix(0.04329004,0,0,0.04329004,0,-2.5067139e-6)" />
  <polyline
     points="115.51,404.21 117.28,404.21 111.40,468.98 107.87,468.98 100.81,466.61 93.16,463.45 93.16,458.71 93.16,455.55 90.81,450.02 87.87,444.49 86.10,440.54 84.93,437.38 86.10,416.06 87.87,412.11 87.87,410.53 85.52,409.74 84.93,408.95 85.52,408.16 88.46,405.79 90.22,403.42 90.81,402.63 115.51,404.21 "
     style="fill:#999999;stroke:#000000;stroke-width:2.31000018;stroke-linecap:round;stroke-linejoin:round;stroke-miterlimit:10;stroke-dasharray:none"
     clip-path="url(#cpMTAuNDYwOHw0OTcuMDI2fDU0My45Mzl8Ni45NzM4NQ==)"
     id="polyline199"
     transform="matrix(0.04329004,0,0,0.04329004,0,-2.5067139e-6)" />
  <polyline
     points="439.62,218.58 440.21,213.06 434.32,212.27 434.91,201.21 416.68,201.21 416.68,176.72 436.68,176.72 436.68,172.77 444.32,173.56 444.91,176.72 474.91,177.51 474.91,184.62 474.32,213.85 470.20,214.64 463.73,215.43 459.62,217.79 459.03,219.37 458.44,221.74 451.97,220.16 451.97,218.58 439.62,218.58 "
     style="fill:#999999;stroke:#000000;stroke-width:2.31000018;stroke-linecap:round;stroke-linejoin:round;stroke-miterlimit:10;stroke-dasharray:none"
     clip-path="url(#cpMTAuNDYwOHw0OTcuMDI2fDU0My45Mzl8Ni45NzM4NQ==)"
     id="polyline201"
     transform="matrix(0.04329004,0,0,0.04329004,0,-2.5067139e-6)" />
  <polyline
     points="72.58,274.67 72.58,312.58 66.69,314.16 32.58,312.58 32.58,300.73 33.17,259.66 33.17,254.13 69.63,254.13 71.40,253.34 72.58,274.67 "
     style="fill:#808080;stroke:#000000;stroke-width:2.31000018;stroke-linecap:round;stroke-linejoin:round;stroke-miterlimit:10;stroke-dasharray:none"
     clip-path="url(#cpMTAuNDYwOHw0OTcuMDI2fDU0My45Mzl8Ni45NzM4NQ==)"
     id="polyline203"
     transform="matrix(0.04329004,0,0,0.04329004,0,-2.5067139e-6)" />
  <polyline
     points="151.98,364.71 153.16,341.81 194.33,344.18 192.57,369.45 187.86,377.35 181.98,387.62 159.63,387.62 161.98,365.50 151.98,364.71 "
     style="fill:#999999;stroke:#000000;stroke-width:2.31000018;stroke-linecap:round;stroke-linejoin:round;stroke-miterlimit:10;stroke-dasharray:none"
     clip-path="url(#cpMTAuNDYwOHw0OTcuMDI2fDU0My45Mzl8Ni45NzM4NQ==)"
     id="polyline205"
     transform="matrix(0.04329004,0,0,0.04329004,0,-2.5067139e-6)" />
  <polyline
     points="245.51,283.36 244.33,311.00 240.22,310.21 240.22,313.37 241.98,313.37 241.39,324.43 239.04,325.22 238.45,330.75 194.92,328.38 194.33,313.37 197.28,312.58 194.33,308.63 193.75,304.68 193.16,298.36 193.75,294.41 198.45,294.41 198.45,288.09 201.98,286.51 201.98,281.78 245.51,283.36 "
     style="fill:#999999;stroke:#000000;stroke-width:2.31000018;stroke-linecap:round;stroke-linejoin:round;stroke-miterlimit:10;stroke-dasharray:none"
     clip-path="url(#cpMTAuNDYwOHw0OTcuMDI2fDU0My45Mzl8Ni45NzM4NQ==)"
     id="polyline207"
     transform="matrix(0.04329004,0,0,0.04329004,0,-2.5067139e-6)" />
  <polyline
     points="127.87,96.94 81.40,97.73 81.99,92.99 78.46,92.20 78.46,77.98 76.10,77.98 75.52,65.35 79.05,65.35 128.46,62.98 129.04,77.98 127.87,77.98 127.87,96.94 "
     style="fill:#999999;stroke:#000000;stroke-width:2.31000018;stroke-linecap:round;stroke-linejoin:round;stroke-miterlimit:10;stroke-dasharray:none"
     clip-path="url(#cpMTAuNDYwOHw0OTcuMDI2fDU0My45Mzl8Ni45NzM4NQ==)"
     id="polyline209"
     transform="matrix(0.04329004,0,0,0.04329004,0,-2.5067139e-6)" />
  <polyline
     points="153.75,333.12 153.16,341.81 151.98,364.71 119.04,360.76 103.75,359.97 106.69,324.43 110.81,324.43 110.81,322.85 122.57,323.64 122.57,326.01 134.34,326.80 134.34,329.96 143.75,330.75 143.75,332.33 153.75,333.12 "
     style="fill:#666666;stroke:#000000;stroke-width:2.31000018;stroke-linecap:round;stroke-linejoin:round;stroke-miterlimit:10;stroke-dasharray:none"
     clip-path="url(#cpMTAuNDYwOHw0OTcuMDI2fDU0My45Mzl8Ni45NzM4NQ==)"
     id="polyline211"
     transform="matrix(0.04329004,0,0,0.04329004,0,-2.5067139e-6)" />
  <polyline
     points="90.81,402.63 90.22,403.42 88.46,405.79 85.52,408.16 84.93,408.95 85.52,409.74 87.87,410.53 87.87,412.11 86.10,416.06 84.93,437.38 81.40,435.01 76.69,431.85 73.75,429.48 72.58,425.54 70.22,423.96 67.87,423.96 64.34,426.32 58.46,428.69 52.58,429.48 48.46,427.91 43.75,425.54 40.22,422.38 36.69,422.38 32.58,424.75 32.58,397.89 60.22,397.10 81.40,400.26 90.81,400.26 90.81,402.63 "
     style="fill:#999999;stroke:#000000;stroke-width:2.31000018;stroke-linecap:round;stroke-linejoin:round;stroke-miterlimit:10;stroke-dasharray:none"
     clip-path="url(#cpMTAuNDYwOHw0OTcuMDI2fDU0My45Mzl8Ni45NzM4NQ==)"
     id="polyline213"
     transform="matrix(0.04329004,0,0,0.04329004,0,-2.5067139e-6)" />
  <polyline
     points="117.87,235.96 117.87,228.06 129.63,228.85 148.45,228.85 166.10,232.80 162.57,269.14 139.04,266.77 137.87,265.98 114.93,264.40 115.51,260.45 116.69,261.24 117.28,248.60 117.87,248.60 117.87,235.96 "
     style="fill:#666666;stroke:#000000;stroke-width:2.31000018;stroke-linecap:round;stroke-linejoin:round;stroke-miterlimit:10;stroke-dasharray:none"
     clip-path="url(#cpMTAuNDYwOHw0OTcuMDI2fDU0My45Mzl8Ni45NzM4NQ==)"
     id="polyline215"
     transform="matrix(0.04329004,0,0,0.04329004,0,-2.5067139e-6)" />
  <polyline
     points="153.16,341.81 153.75,333.12 159.04,333.91 166.69,300.73 167.28,286.51 198.45,288.09 198.45,294.41 193.75,294.41 193.16,298.36 193.75,304.68 194.33,308.63 197.28,312.58 194.33,313.37 194.92,328.38 194.33,344.18 153.16,341.81 "
     style="fill:#999999;stroke:#000000;stroke-width:2.31000018;stroke-linecap:round;stroke-linejoin:round;stroke-miterlimit:10;stroke-dasharray:none"
     clip-path="url(#cpMTAuNDYwOHw0OTcuMDI2fDU0My45Mzl8Ni45NzM4NQ==)"
     id="polyline217"
     transform="matrix(0.04329004,0,0,0.04329004,0,-2.5067139e-6)" />
  <polyline
     points="33.17,254.13 33.75,224.90 33.17,201.21 69.63,202.00 69.05,209.11 69.63,254.13 33.17,254.13 "
     style="fill:#666666;stroke:#000000;stroke-width:2.31000018;stroke-linecap:round;stroke-linejoin:round;stroke-miterlimit:10;stroke-dasharray:none"
     clip-path="url(#cpMTAuNDYwOHw0OTcuMDI2fDU0My45Mzl8Ni45NzM4NQ==)"
     id="polyline219"
     transform="matrix(0.04329004,0,0,0.04329004,0,-2.5067139e-6)" />
  <polyline
     points="72.58,312.58 72.58,274.67 92.57,274.67 114.34,277.04 113.75,295.99 111.40,318.90 100.22,317.32 99.63,316.53 100.22,312.58 72.58,312.58 "
     style="fill:#4d4d4d;stroke:#000000;stroke-width:2.31000018;stroke-linecap:round;stroke-linejoin:round;stroke-miterlimit:10;stroke-dasharray:none"
     clip-path="url(#cpMTAuNDYwOHw0OTcuMDI2fDU0My45Mzl8Ni45NzM4NQ==)"
     id="polyline221"
     transform="matrix(0.04329004,0,0,0.04329004,0,-2.5067139e-6)" />
  <polyline
     points="72.58,312.58 100.22,312.58 99.63,316.53 100.22,317.32 111.40,318.90 110.81,322.85 110.81,324.43 106.69,324.43 103.75,359.97 80.81,358.39 67.28,358.39 66.69,314.16 72.58,312.58 "
     style="fill:#666666;stroke:#000000;stroke-width:2.31000018;stroke-linecap:round;stroke-linejoin:round;stroke-miterlimit:10;stroke-dasharray:none"
     clip-path="url(#cpMTAuNDYwOHw0OTcuMDI2fDU0My45Mzl8Ni45NzM4NQ==)"
     id="polyline223"
     transform="matrix(0.04329004,0,0,0.04329004,0,-2.5067139e-6)" />
  <polyline
     points="67.28,358.39 67.28,360.76 32.58,361.55 32.58,339.44 32.58,312.58 66.69,314.16 67.28,358.39 "
     style="fill:#666666;stroke:#000000;stroke-width:2.31000018;stroke-linecap:round;stroke-linejoin:round;stroke-miterlimit:10;stroke-dasharray:none"
     clip-path="url(#cpMTAuNDYwOHw0OTcuMDI2fDU0My45Mzl8Ni45NzM4NQ==)"
     id="polyline225"
     transform="matrix(0.04329004,0,0,0.04329004,0,-2.5067139e-6)" />
  <polyline
     points="71.40,253.34 71.40,250.18 80.81,250.18 80.81,235.96 117.87,235.96 117.87,248.60 117.28,248.60 116.69,261.24 115.51,260.45 114.93,264.40 114.34,277.04 92.57,274.67 72.58,274.67 71.40,253.34 "
     style="fill:#808080;stroke:#000000;stroke-width:2.31000018;stroke-linecap:round;stroke-linejoin:round;stroke-miterlimit:10;stroke-dasharray:none"
     clip-path="url(#cpMTAuNDYwOHw0OTcuMDI2fDU0My45Mzl8Ni45NzM4NQ==)"
     id="polyline227"
     transform="matrix(0.04329004,0,0,0.04329004,0,-2.5067139e-6)" />
  <polyline
     points="358.44,209.11 358.44,176.72 381.97,175.14 382.56,164.87 384.33,164.87 416.68,164.08 416.68,176.72 416.68,201.21 404.32,201.21 403.74,201.21 400.21,201.21 400.21,210.69 392.56,210.69 377.86,209.90 377.27,209.11 376.09,207.53 375.50,209.11 373.74,210.69 358.44,213.06 358.44,209.11 "
     style="fill:#999999;stroke:#000000;stroke-width:2.31000018;stroke-linecap:round;stroke-linejoin:round;stroke-miterlimit:10;stroke-dasharray:none"
     clip-path="url(#cpMTAuNDYwOHw0OTcuMDI2fDU0My45Mzl8Ni45NzM4NQ==)"
     id="polyline229"
     transform="matrix(0.04329004,0,0,0.04329004,0,-2.5067139e-6)" />
  <polyline
     points="34.34,165.66 75.52,165.66 75.52,177.51 80.22,178.30 80.81,184.62 80.81,189.36 75.52,189.36 76.10,209.11 69.05,209.11 69.63,202.00 33.17,201.21 33.75,174.35 34.34,165.66 "
     style="fill:#999999;stroke:#000000;stroke-width:2.31000018;stroke-linecap:round;stroke-linejoin:round;stroke-miterlimit:10;stroke-dasharray:none"
     clip-path="url(#cpMTAuNDYwOHw0OTcuMDI2fDU0My45Mzl8Ni45NzM4NQ==)"
     id="polyline231"
     transform="matrix(0.04329004,0,0,0.04329004,0,-2.5067139e-6)" />
  <polyline
     points="103.75,359.97 119.04,360.76 115.51,404.21 90.81,402.63 90.81,400.26 81.40,400.26 82.58,363.13 80.81,363.13 80.81,358.39 103.75,359.97 "
     style="fill:#999999;stroke:#000000;stroke-width:2.31000018;stroke-linecap:round;stroke-linejoin:round;stroke-miterlimit:10;stroke-dasharray:none"
     clip-path="url(#cpMTAuNDYwOHw0OTcuMDI2fDU0My45Mzl8Ni45NzM4NQ==)"
     id="polyline233"
     transform="matrix(0.04329004,0,0,0.04329004,0,-2.5067139e-6)" />
  <polyline
     points="176.10,129.33 176.10,140.39 129.04,141.18 128.46,105.63 131.98,105.63 137.87,102.47 142.57,96.94 146.10,92.99 146.69,90.62 150.22,87.46 157.28,82.72 159.63,78.77 176.10,78.77 176.10,94.57 176.10,129.33 "
     style="fill:#999999;stroke:#000000;stroke-width:2.31000018;stroke-linecap:round;stroke-linejoin:round;stroke-miterlimit:10;stroke-dasharray:none"
     clip-path="url(#cpMTAuNDYwOHw0OTcuMDI2fDU0My45Mzl8Ni45NzM4NQ==)"
     id="polyline235"
     transform="matrix(0.04329004,0,0,0.04329004,0,-2.5067139e-6)" />
  <defs
     id="defs240" />
</svg>
