<svg xmlns="http://www.w3.org/2000/svg" viewBox="0 0 24 24"><g color="#000" font-weight="400" font-family="sans-serif" white-space="normal" fill-opacity=".827"><path d="M12 .433c-1.383 0-2.719.233-3.964.66l2.13 5.148A6.923 6.923 0 0 1 12 5.997c2.67 0 4.88 1.476 5.873 3.575l4.895-2.617C20.796 3.084 16.672.433 12 .433z" style="line-height:normal;font-variant-ligatures:normal;font-variant-position:normal;font-variant-caps:normal;font-variant-numeric:normal;font-variant-alternates:normal;font-feature-settings:normal;text-indent:0;text-align:start;text-decoration-line:none;text-decoration-style:solid;text-decoration-color:#000;text-transform:none;text-orientation:mixed;shape-padding:0;isolation:auto;mix-blend-mode:normal" overflow="visible" fill="#646060"/><path d="M8.013 1.101C3.384 2.701 0 6.998 0 12.083c0 6.46 5.463 11.65 12 11.65 2.898 0 5.585-1.02 7.678-2.72l-4.08-3.865A6.694 6.694 0 0 1 12 18.168c-3.645 0-6.436-2.75-6.436-6.085 0-2.74 1.885-5.086 4.579-5.836z" style="line-height:normal;font-variant-ligatures:normal;font-variant-position:normal;font-variant-caps:normal;font-variant-numeric:normal;font-variant-alternates:normal;font-feature-settings:normal;text-indent:0;text-align:start;text-decoration-line:none;text-decoration-style:solid;text-decoration-color:#000;text-transform:none;text-orientation:mixed;shape-padding:0;isolation:auto;mix-blend-mode:normal" overflow="visible"/><path d="M22.78 6.977l-4.896 2.617c.356.762.552 1.605.552 2.489 0 2.091-1.098 3.953-2.817 5.051l4.079 3.864C22.315 18.865 24 15.67 24 12.083c0-1.835-.44-3.566-1.22-5.106z" style="line-height:normal;font-variant-ligatures:normal;font-variant-position:normal;font-variant-caps:normal;font-variant-numeric:normal;font-variant-alternates:normal;font-feature-settings:normal;text-indent:0;text-align:start;text-decoration-line:none;text-decoration-style:solid;text-decoration-color:#000;text-transform:none;text-orientation:mixed;shape-padding:0;isolation:auto;mix-blend-mode:normal" overflow="visible" fill="#b3b3b3"/></g></svg>