<svg xmlns="http://www.w3.org/2000/svg" viewBox="0 0 24 24"><g stroke-width=".977"><path fill="#e6e6e6" d="M.672 0h3.765v4H.672z"/><path fill="#999" d="M4.437 0h3.765v4H4.437z"/><path d="M8.201 0h3.765v4H8.201z"/><path fill="#333" d="M11.966 0h3.766v4h-3.766z"/><path d="M15.73 0h3.766v4H15.73z"/><path fill="#999" d="M19.496 0h3.765v4h-3.765z"/><path d="M.672 4h3.765v4H.672z"/><path fill="#999" d="M4.437 4h3.765v4H4.437z"/><path fill="#333" d="M8.201 4h3.765v4H8.201z"/><path fill="#b3b3b3" d="M11.966 4h3.766v4h-3.766z"/><path d="M15.73 4h3.766v4H15.73z"/><path fill="#1a1a1a" d="M19.496 4h3.765v4h-3.765z"/><path fill="#333" d="M.672 8h3.765v4H.672zM4.437 8h3.765v4H4.437z"/><path fill="#999" d="M8.201 8h3.765v4H8.201z"/><path fill="#999" d="M11.966 8h3.766v4h-3.766z"/><path fill="#333" d="M15.73 8h3.766v4H15.73z"/><path fill="#999" d="M19.496 8h3.765v4h-3.765zM.672 12h3.765v4H.672z"/><path fill="#b3b3b3" d="M4.437 12h3.765v4H4.437z"/><path fill="#f2f2f2" d="M8.201 12h3.765v4H8.201z"/><path fill="#b3b3b3" d="M11.966 12h3.766v4h-3.766z"/><path fill="#ececec" d="M15.73 12h3.766v4H15.73z"/><path d="M19.496 12h3.765v4h-3.765zM.672 16h3.765v4H.672z"/><path fill="#b3b3b3" d="M4.437 16h3.765v4H4.437z"/><path fill="#333" d="M8.201 16h3.765v4H8.201z"/><path d="M11.966 16h3.766v4h-3.766z"/><path d="M15.73 16h3.766v4H15.73z"/><path fill="#999" d="M19.496 16h3.765v4h-3.765z"/><path fill="#333" d="M.672 20h3.765v4H.672z"/><path d="M4.437 20h3.765v4H4.437z"/><path fill="#999" d="M8.201 20h3.765v4H8.201z"/><path fill="#999" d="M11.966 20h3.766v4h-3.766z"/><path d="M15.73 20h3.766v4H15.73z"/><path fill="#999" d="M19.496 20h3.765v4h-3.765z"/></g></svg>