<?xml version="1.0" encoding="UTF-8" standalone="no"?>
<!-- Created with Inkscape (http://www.inkscape.org/) -->

<svg
   xmlns:dc="http://purl.org/dc/elements/1.1/"
   xmlns:cc="http://creativecommons.org/ns#"
   xmlns:rdf="http://www.w3.org/1999/02/22-rdf-syntax-ns#"
   xmlns:svg="http://www.w3.org/2000/svg"
   xmlns="http://www.w3.org/2000/svg"
   xmlns:sodipodi="http://sodipodi.sourceforge.net/DTD/sodipodi-0.dtd"
   xmlns:inkscape="http://www.inkscape.org/namespaces/inkscape"
   viewBox="0 0 24 24"
   version="1.1"
   id="svg8"
   inkscape:version="0.92.3 (2405546, 2018-03-11)"
   sodipodi:docname="numberlabel.svg">
  <defs
     id="defs2" />
  <sodipodi:namedview
     id="base"
     pagecolor="#ffffff"
     bordercolor="#666666"
     borderopacity="1.0"
     inkscape:pageopacity="0.0"
     inkscape:pageshadow="2"
     inkscape:zoom="11.2"
     inkscape:cx="16.876633"
     inkscape:cy="23.246836"
     inkscape:document-units="px"
     inkscape:current-layer="layer1"
     showgrid="false"
     inkscape:window-width="1368"
     inkscape:window-height="849"
     inkscape:window-x="-8"
     inkscape:window-y="-8"
     inkscape:window-maximized="1"
     units="px"
     fit-margin-top="0"
     fit-margin-left="0"
     fit-margin-right="0"
     fit-margin-bottom="0" />
  <metadata
     id="metadata5">
    <rdf:RDF>
      <cc:Work
         rdf:about="">
        <dc:format>image/svg+xml</dc:format>
        <dc:type
           rdf:resource="http://purl.org/dc/dcmitype/StillImage" />
        <dc:title></dc:title>
      </cc:Work>
    </rdf:RDF>
  </metadata>
  <g
     inkscape:label="Layer 1"
     inkscape:groupmode="layer"
     id="layer1"
     transform="translate(13.307845,-222.67125)">
    <text
       xml:space="preserve"
       style="font-style:normal;font-weight:normal;font-size:10.58333302px;line-height:1.25;font-family:sans-serif;letter-spacing:0px;word-spacing:0px;fill:#000000;fill-opacity:1;stroke:none;stroke-width:0.26458332"
       x="148.92261"
       y="135.22618"
       id="text840"><tspan
         sodipodi:role="line"
         x="148.92261"
         y="144.88168"
         style="stroke-width:0.26458332"
         id="tspan844" /></text>
    <text
       xml:space="preserve"
       style="font-style:normal;font-weight:normal;font-size:10.58333302px;line-height:1.25;font-family:sans-serif;letter-spacing:0px;word-spacing:0px;fill:#000000;fill-opacity:1;stroke:none;stroke-width:0.26458332"
       x="114.90475"
       y="136.7381"
       id="text852"><tspan
         sodipodi:role="line"
         id="tspan850"
         x="114.90475"
         y="146.3936"
         style="stroke-width:0.26458332" /></text>
    <g
       id="g1047"
       transform="matrix(3.7795113,0,0,3.7795113,36.983893,-619.59209)"
       style="stroke-width:0.26458448">
      <path
         d="m -10.542533,224.31073 h -0.09146 l -0.263564,-0.49727 v 0.49727 h -0.06907 v -0.55588 h 0.11461 l 0.240419,0.45396 v -0.45396 h 0.06906 z"
         style="font-style:normal;font-weight:normal;font-size:medium;line-height:1.25;font-family:sans-serif;letter-spacing:0px;word-spacing:0px;fill:#999999;fill-opacity:1;stroke:none;stroke-width:0.07000465"
         id="path841"
         inkscape:connector-curvature="0" />
      <path
         d="m -10.054603,224.31073 h -0.07018 v -0.0463 q -0.03547,0.028 -0.06794,0.0429 -0.03248,0.0149 -0.07168,0.0149 -0.0657,0 -0.10229,-0.0399 -0.03658,-0.0403 -0.03658,-0.11797 v -0.27066 h 0.07018 v 0.23743 q 0,0.0317 0.003,0.0545 0.003,0.0224 0.01269,0.0385 0.01008,0.0164 0.02613,0.0239 0.01605,0.007 0.04666,0.007 0.02725,0 0.05936,-0.0142 0.03248,-0.0142 0.06048,-0.0362 v -0.31135 h 0.07018 z"
         style="font-style:normal;font-weight:normal;font-size:medium;line-height:1.25;font-family:sans-serif;letter-spacing:0px;word-spacing:0px;fill:#999999;fill-opacity:1;stroke:none;stroke-width:0.07000465"
         id="path843"
         inkscape:connector-curvature="0" />
      <path
         d="m -9.3079609,224.31073 h -0.070184 v -0.23743 q 0,-0.0269 -0.00261,-0.0519 -0.00224,-0.025 -0.01008,-0.0399 -0.00859,-0.0161 -0.024639,-0.0243 -0.016053,-0.008 -0.046292,-0.008 -0.029492,0 -0.058985,0.0149 -0.029492,0.0146 -0.058985,0.0373 0.00112,0.009 0.00187,0.0202 7.473e-4,0.0112 7.473e-4,0.0224 v 0.26693 h -0.070184 v -0.23743 q 0,-0.0276 -0.00261,-0.0523 -0.00224,-0.025 -0.01008,-0.0399 -0.00859,-0.0161 -0.024639,-0.0239 -0.016053,-0.008 -0.046292,-0.008 -0.028746,0 -0.057865,0.0142 -0.028746,0.0142 -0.057491,0.0362 v 0.31135 h -0.070184 v -0.417 h 0.070184 v 0.0463 q 0.032852,-0.0273 0.065331,-0.0426 0.032852,-0.0153 0.069811,-0.0153 0.042559,0 0.072051,0.0179 0.029866,0.0179 0.044425,0.0496 0.042559,-0.0358 0.077651,-0.0515 0.035092,-0.0161 0.075038,-0.0161 0.068691,0 0.1011699,0.0418 0.032852,0.0414 0.032852,0.1161 z"
         style="font-style:normal;font-weight:normal;font-size:medium;line-height:1.25;font-family:sans-serif;letter-spacing:0px;word-spacing:0px;fill:#999999;fill-opacity:1;stroke:none;stroke-width:0.07000465"
         id="path845"
         inkscape:connector-curvature="0" />
      <path
         d="m -8.8058444,224.09906 q 0,0.0523 -0.014933,0.0941 -0.014559,0.0418 -0.039572,0.0702 -0.026506,0.0295 -0.058238,0.0444 -0.031732,0.0146 -0.069811,0.0146 -0.035466,0 -0.061971,-0.009 -0.026506,-0.008 -0.052265,-0.0224 l -0.00448,0.0194 h -0.065704 v -0.58089 h 0.070184 v 0.20757 q 0.029492,-0.0243 0.062718,-0.0396 0.033226,-0.0157 0.074664,-0.0157 0.073918,0 0.1164761,0.0567 0.042932,0.0568 0.042932,0.16016 z m -0.072424,0.002 q 0,-0.0747 -0.024639,-0.11311 -0.024639,-0.0388 -0.079517,-0.0388 -0.030612,0 -0.061971,0.0134 -0.031359,0.0131 -0.058238,0.034 v 0.23893 q 0.029866,0.0134 0.051145,0.0187 0.021653,0.005 0.048905,0.005 0.058238,0 0.09109,-0.0381 0.033226,-0.0384 0.033226,-0.12021 z"
         style="font-style:normal;font-weight:normal;font-size:medium;line-height:1.25;font-family:sans-serif;letter-spacing:0px;word-spacing:0px;fill:#999999;fill-opacity:1;stroke:none;stroke-width:0.07000465"
         id="path847"
         inkscape:connector-curvature="0" />
      <path
         d="m -8.3474062,224.10951 h -0.3072431 q 0,0.0385 0.011573,0.0672 0.011573,0.0284 0.031732,0.0467 0.019413,0.0179 0.045918,0.0269 0.026879,0.009 0.058985,0.009 0.042559,0 0.08549,-0.0168 0.043305,-0.0172 0.061598,-0.0336 h 0.00373 v 0.0765 q -0.035465,0.0149 -0.072424,0.025 -0.036959,0.0101 -0.077651,0.0101 -0.1037832,0 -0.1620212,-0.056 -0.058238,-0.0564 -0.058238,-0.15978 0,-0.10229 0.055625,-0.1624 0.055998,-0.0601 0.1470884,-0.0601 0.084371,0 0.1299158,0.0493 0.045918,0.0493 0.045918,0.14 z m -0.068318,-0.0538 q -3.728e-4,-0.0553 -0.027999,-0.0855 -0.027252,-0.0302 -0.083251,-0.0302 -0.056371,0 -0.08997,0.0332 -0.033226,0.0332 -0.037706,0.0825 z"
         style="font-style:normal;font-weight:normal;font-size:medium;line-height:1.25;font-family:sans-serif;letter-spacing:0px;word-spacing:0px;fill:#999999;fill-opacity:1;stroke:none;stroke-width:0.07000465"
         id="path849"
         inkscape:connector-curvature="0" />
      <path
         d="m -7.980805,223.97026 h -0.00373 q -0.015679,-0.004 -0.030612,-0.005 -0.01456,-0.002 -0.034719,-0.002 -0.032479,0 -0.062718,0.0146 -0.030239,0.0142 -0.058238,0.0369 v 0.29605 h -0.070184 v -0.417 h 0.070184 v 0.0616 q 0.041812,-0.0336 0.073544,-0.0474 0.032105,-0.0142 0.065331,-0.0142 0.018293,0 0.026506,0.001 0.00821,7.5e-4 0.024639,0.003 z"
         style="font-style:normal;font-weight:normal;font-size:medium;line-height:1.25;font-family:sans-serif;letter-spacing:0px;word-spacing:0px;fill:#999999;fill-opacity:1;stroke:none;stroke-width:0.07000465"
         id="path851"
         inkscape:connector-curvature="0" />
      <path
         d="m -7.2897881,224.10242 q 0,0.10191 -0.052265,0.1609 -0.052265,0.059 -0.1399954,0.059 -0.088477,0 -0.140742,-0.059 -0.051892,-0.059 -0.051892,-0.1609 0,-0.10192 0.051892,-0.16091 0.052265,-0.0593 0.140742,-0.0593 0.08773,0 0.1399954,0.0593 0.052265,0.059 0.052265,0.16091 z m -0.072424,0 q 0,-0.081 -0.031732,-0.12021 -0.031732,-0.0396 -0.088104,-0.0396 -0.057118,0 -0.08885,0.0396 -0.031359,0.0392 -0.031359,0.12021 0,0.0784 0.031732,0.11908 0.031732,0.0403 0.088477,0.0403 0.055998,0 0.08773,-0.0399 0.032106,-0.0403 0.032106,-0.11946 z"
         style="font-style:normal;font-weight:normal;font-size:medium;line-height:1.25;font-family:sans-serif;letter-spacing:0px;word-spacing:0px;fill:#999999;fill-opacity:1;stroke:none;stroke-width:0.07000465"
         id="path853"
         inkscape:connector-curvature="0" />
      <path
         d="m -6.9564125,223.79779 h -0.00373 q -0.011573,-0.003 -0.030239,-0.007 -0.018666,-0.004 -0.032852,-0.004 -0.045172,0 -0.065704,0.0202 -0.020159,0.0198 -0.020159,0.072 v 0.0142 h 0.1265557 v 0.059 h -0.1243159 v 0.35802 h -0.070184 v -0.35802 h -0.047412 v -0.059 h 0.047412 v -0.0138 q 0,-0.0743 0.036959,-0.11387 0.036959,-0.0399 0.1067699,-0.0399 0.023519,0 0.042185,0.002 0.019039,0.002 0.034719,0.005 z"
         style="font-style:normal;font-weight:normal;font-size:medium;line-height:1.25;font-family:sans-serif;letter-spacing:0px;word-spacing:0px;fill:#999999;fill-opacity:1;stroke:none;stroke-width:0.07000465"
         id="path855"
         inkscape:connector-curvature="0" />
      <path
         d="m -10.62317,225.06521 h -0.307244 q 0,0.0384 0.01157,0.0672 0.01157,0.0284 0.03173,0.0467 0.01941,0.0179 0.04592,0.0269 0.02688,0.009 0.05898,0.009 0.04256,0 0.08549,-0.0168 0.04331,-0.0172 0.0616,-0.0336 h 0.0037 v 0.0765 q -0.03546,0.0149 -0.07242,0.025 -0.03696,0.0101 -0.07765,0.0101 -0.103784,0 -0.162022,-0.056 -0.05824,-0.0564 -0.05824,-0.15978 0,-0.10229 0.05563,-0.1624 0.056,-0.0601 0.147088,-0.0601 0.08437,0 0.129916,0.0493 0.04592,0.0493 0.04592,0.13999 z m -0.06832,-0.0538 q -3.73e-4,-0.0553 -0.028,-0.0855 -0.02725,-0.0302 -0.08325,-0.0302 -0.05637,0 -0.08997,0.0332 -0.03323,0.0332 -0.03771,0.0825 z"
         style="font-style:normal;font-weight:normal;font-size:medium;line-height:1.25;font-family:sans-serif;letter-spacing:0px;word-spacing:0px;fill:#999999;fill-opacity:1;stroke:none;stroke-width:0.07000465"
         id="path857"
         inkscape:connector-curvature="0" />
      <path
         d="m -9.9082609,225.26643 h -0.070184 V 225.029 q 0,-0.0269 -0.00261,-0.0519 -0.00224,-0.025 -0.01008,-0.04 -0.00859,-0.0161 -0.024639,-0.0243 -0.01605,-0.008 -0.04629,-0.008 -0.02949,0 -0.05899,0.0149 -0.02949,0.0146 -0.05898,0.0373 0.0011,0.009 0.0019,0.0202 7.47e-4,0.0112 7.47e-4,0.0224 v 0.26692 h -0.07018 V 225.029 q 0,-0.0276 -0.0026,-0.0523 -0.0022,-0.025 -0.01008,-0.0399 -0.0086,-0.0161 -0.02464,-0.0239 -0.01605,-0.008 -0.04629,-0.008 -0.02875,0 -0.05786,0.0142 -0.02875,0.0142 -0.05749,0.0362 v 0.31135 h -0.07018 v -0.417 h 0.07018 v 0.0463 q 0.03285,-0.0273 0.06533,-0.0426 0.03285,-0.0153 0.06981,-0.0153 0.04256,0 0.07205,0.0179 0.02987,0.0179 0.04443,0.0496 0.04256,-0.0358 0.07765,-0.0515 0.03509,-0.0161 0.07504,-0.0161 0.068691,0 0.1011712,0.0418 0.032852,0.0414 0.032852,0.1161 z"
         style="font-style:normal;font-weight:normal;font-size:medium;line-height:1.25;font-family:sans-serif;letter-spacing:0px;word-spacing:0px;fill:#999999;fill-opacity:1;stroke:none;stroke-width:0.07000465"
         id="path859"
         inkscape:connector-curvature="0" />
      <path
         d="m -9.4061444,225.05289 q 0,0.0508 -0.014559,0.093 -0.014559,0.0418 -0.041065,0.0709 -0.024639,0.0276 -0.058238,0.0429 -0.033226,0.0149 -0.070557,0.0149 -0.032479,0 -0.058985,-0.007 -0.026133,-0.007 -0.053385,-0.022 v 0.17472 h -0.070184 v -0.57081 h 0.070184 v 0.0437 q 0.027999,-0.0235 0.062718,-0.0392 0.035092,-0.0161 0.074664,-0.0161 0.075411,0 0.1172227,0.0571 0.042185,0.0567 0.042185,0.15791 z m -0.072424,0.002 q 0,-0.0754 -0.025759,-0.11275 -0.025759,-0.0373 -0.079144,-0.0373 -0.030239,0 -0.060851,0.0131 -0.030612,0.0131 -0.058611,0.0343 v 0.23632 q 0.029866,0.0134 0.051145,0.0183 0.021653,0.005 0.048905,0.005 0.058611,0 0.091463,-0.0396 0.032852,-0.0396 0.032852,-0.11722 z"
         style="font-style:normal;font-weight:normal;font-size:medium;line-height:1.25;font-family:sans-serif;letter-spacing:0px;word-spacing:0px;fill:#999999;fill-opacity:1;stroke:none;stroke-width:0.07000465"
         id="path861"
         inkscape:connector-curvature="0" />
      <path
         d="m -9.2258302,225.26643 h -0.070184 v -0.58089 h 0.070184 z"
         style="font-style:normal;font-weight:normal;font-size:medium;line-height:1.25;font-family:sans-serif;letter-spacing:0px;word-spacing:0px;fill:#999999;fill-opacity:1;stroke:none;stroke-width:0.07000465"
         id="path863"
         inkscape:connector-curvature="0" />
      <path
         d="m -8.7308067,225.05812 q 0,0.10191 -0.052265,0.1609 -0.052265,0.059 -0.1399954,0.059 -0.088477,0 -0.1407419,-0.059 -0.051892,-0.059 -0.051892,-0.1609 0,-0.10192 0.051892,-0.1609 0.052265,-0.0594 0.1407419,-0.0594 0.087731,0 0.1399954,0.0594 0.052265,0.059 0.052265,0.1609 z m -0.072424,0 q 0,-0.081 -0.031732,-0.12021 -0.031732,-0.0396 -0.088104,-0.0396 -0.057118,0 -0.08885,0.0396 -0.031359,0.0392 -0.031359,0.12021 0,0.0784 0.031732,0.11909 0.031732,0.0403 0.088477,0.0403 0.055998,0 0.087731,-0.0399 0.032105,-0.0403 0.032105,-0.11946 z"
         style="font-style:normal;font-weight:normal;font-size:medium;line-height:1.25;font-family:sans-serif;letter-spacing:0px;word-spacing:0px;fill:#999999;fill-opacity:1;stroke:none;stroke-width:0.07000465"
         id="path865"
         inkscape:connector-curvature="0" />
      <path
         d="m -8.2671422,224.84943 -0.2434053,0.57081 h -0.075038 l 0.077651,-0.17397 -0.1661277,-0.39684 h 0.076157 l 0.128049,0.30911 0.129169,-0.30911 z"
         style="font-style:normal;font-weight:normal;font-size:medium;line-height:1.25;font-family:sans-serif;letter-spacing:0px;word-spacing:0px;fill:#999999;fill-opacity:1;stroke:none;stroke-width:0.07000465"
         id="path867"
         inkscape:connector-curvature="0" />
      <path
         d="m -7.8322235,225.06521 h -0.3072429 q 0,0.0384 0.011573,0.0672 0.011573,0.0284 0.031732,0.0467 0.019413,0.0179 0.045918,0.0269 0.026879,0.009 0.058985,0.009 0.042558,0 0.08549,-0.0168 0.043305,-0.0172 0.061598,-0.0336 h 0.00373 v 0.0765 q -0.035465,0.0149 -0.072424,0.025 -0.036959,0.0101 -0.077651,0.0101 -0.1037831,0 -0.1620212,-0.056 -0.058238,-0.0564 -0.058238,-0.15978 0,-0.10229 0.055625,-0.1624 0.055998,-0.0601 0.1470886,-0.0601 0.08437,0 0.1299155,0.0493 0.045918,0.0493 0.045918,0.13999 z m -0.068318,-0.0538 q -3.727e-4,-0.0553 -0.027999,-0.0855 -0.027252,-0.0302 -0.083251,-0.0302 -0.056371,0 -0.08997,0.0332 -0.033226,0.0332 -0.037705,0.0825 z"
         style="font-style:normal;font-weight:normal;font-size:medium;line-height:1.25;font-family:sans-serif;letter-spacing:0px;word-spacing:0px;fill:#999999;fill-opacity:1;stroke:none;stroke-width:0.07000465"
         id="path869"
         inkscape:connector-curvature="0" />
      <path
         d="M -7.3767719,225.06521 H -7.684015 q 0,0.0384 0.011573,0.0672 0.011573,0.0284 0.031732,0.0467 0.019413,0.0179 0.045918,0.0269 0.026879,0.009 0.058985,0.009 0.042558,0 0.08549,-0.0168 0.043305,-0.0172 0.061598,-0.0336 h 0.00373 v 0.0765 q -0.035465,0.0149 -0.072424,0.025 -0.036959,0.0101 -0.077651,0.0101 -0.1037833,0 -0.1620212,-0.056 -0.058238,-0.0564 -0.058238,-0.15978 0,-0.10229 0.055625,-0.1624 0.055998,-0.0601 0.1470884,-0.0601 0.08437,0 0.1299157,0.0493 0.045918,0.0493 0.045918,0.13999 z m -0.068318,-0.0538 q -3.727e-4,-0.0553 -0.027999,-0.0855 -0.027252,-0.0302 -0.083251,-0.0302 -0.056372,0 -0.08997,0.0332 -0.033225,0.0332 -0.037705,0.0825 z"
         style="font-style:normal;font-weight:normal;font-size:medium;line-height:1.25;font-family:sans-serif;letter-spacing:0px;word-spacing:0px;fill:#999999;fill-opacity:1;stroke:none;stroke-width:0.07000465"
         id="path871"
         inkscape:connector-curvature="0" />
      <path
         d="m -6.9724654,225.14622 q 0,0.0571 -0.047412,0.0937 -0.047038,0.0366 -0.1287957,0.0366 -0.046292,0 -0.085117,-0.0108 -0.038452,-0.0112 -0.064585,-0.0243 v -0.0788 h 0.00373 q 0.033226,0.025 0.073918,0.0399 0.040692,0.0146 0.078024,0.0146 0.046292,0 0.072424,-0.0149 0.026132,-0.0149 0.026132,-0.047 0,-0.0246 -0.014186,-0.0373 -0.014186,-0.0127 -0.054505,-0.0216 -0.014933,-0.003 -0.039199,-0.008 -0.023893,-0.004 -0.043678,-0.01 -0.054878,-0.0146 -0.078024,-0.0426 -0.022772,-0.0284 -0.022772,-0.0694 0,-0.0258 0.010453,-0.0485 0.010826,-0.0228 0.032479,-0.0407 0.020906,-0.0175 0.053012,-0.0276 0.032479,-0.0104 0.072424,-0.0104 0.037332,0 0.075411,0.009 0.038452,0.009 0.063838,0.022 v 0.075 h -0.00373 q -0.026879,-0.0198 -0.065331,-0.0332 -0.038452,-0.0138 -0.075411,-0.0138 -0.038452,0 -0.064958,0.0149 -0.026506,0.0146 -0.026506,0.0437 0,0.0258 0.016053,0.0388 0.015679,0.0131 0.050772,0.0213 0.019413,0.004 0.043305,0.009 0.024266,0.004 0.040318,0.008 0.048905,0.0112 0.075411,0.0384 0.026506,0.0276 0.026506,0.0732 z"
         style="font-style:normal;font-weight:normal;font-size:medium;line-height:1.25;font-family:sans-serif;letter-spacing:0px;word-spacing:0px;fill:#999999;fill-opacity:1;stroke:none;stroke-width:0.07000465"
         id="path873"
         inkscape:connector-curvature="0" />
      <g
         id="text992"
         style="font-style:normal;font-variant:normal;font-weight:normal;font-stretch:normal;font-size:1.69658887px;line-height:1.25;font-family:sans-serif;-inkscape-font-specification:'sans-serif, Normal';font-variant-ligatures:normal;font-variant-caps:normal;font-variant-numeric:normal;font-feature-settings:normal;text-align:start;letter-spacing:0px;word-spacing:0px;writing-mode:lr-tb;text-anchor:start;fill:#666666;fill-opacity:1;stroke:none;stroke-width:0.96902984"
         aria-label="2018">
        <path
           id="path1013"
           style="font-style:normal;font-variant:normal;font-weight:normal;font-stretch:normal;font-size:1.69658887px;font-family:sans-serif;-inkscape-font-specification:'sans-serif, Normal';font-variant-ligatures:normal;font-variant-caps:normal;font-variant-numeric:normal;font-feature-settings:normal;text-align:start;writing-mode:lr-tb;text-anchor:start;fill:#666666;stroke-width:0.96902984"
           d="m -10.206249,226.74866 h -0.83504 v -0.17314 q 0.08698,-0.0746 0.173967,-0.14912 0.08781,-0.0745 0.163197,-0.14828 0.159055,-0.15409 0.217872,-0.24438 0.05882,-0.0911 0.05882,-0.19634 0,-0.0961 -0.06379,-0.14994 -0.06296,-0.0547 -0.176452,-0.0547 -0.07539,0 -0.163197,0.0265 -0.08781,0.0265 -0.171482,0.0812 h -0.0083 v -0.17397 q 0.05882,-0.029 0.15657,-0.053 0.09858,-0.024 0.190535,-0.024 0.189706,0 0.2974,0.0919 0.107694,0.0911 0.107694,0.2477 0,0.0704 -0.01823,0.13172 -0.0174,0.0605 -0.05219,0.11515 -0.03231,0.0514 -0.07621,0.10106 -0.04308,0.0497 -0.105209,0.11018 -0.08864,0.087 -0.183079,0.169 -0.09444,0.0812 -0.176452,0.15077 h 0.663559 z"
           inkscape:connector-curvature="0" />
        <path
           id="path1015"
           style="font-style:normal;font-variant:normal;font-weight:normal;font-stretch:normal;font-size:1.69658887px;font-family:sans-serif;-inkscape-font-specification:'sans-serif, Normal';font-variant-ligatures:normal;font-variant-caps:normal;font-variant-numeric:normal;font-feature-settings:normal;text-align:start;writing-mode:lr-tb;text-anchor:start;fill:#666666;stroke-width:0.96902984"
           d="m -9.1276562,226.13149 q 0,0.33219 -0.10438,0.48793 -0.1035516,0.15492 -0.3222525,0.15492 -0.2220145,0 -0.3247377,-0.1574 -0.1018947,-0.1574 -0.1018947,-0.48379 0,-0.32888 0.1035515,-0.48545 0.1035516,-0.1574 0.3230809,-0.1574 0.2220146,0 0.3239093,0.15988 0.1027232,0.15906 0.1027232,0.48131 z m -0.2178725,0.3761 q 0.028994,-0.0671 0.038935,-0.1574 0.010769,-0.0911 0.010769,-0.2187 0,-0.12592 -0.010769,-0.2187 -0.00994,-0.0928 -0.039764,-0.1574 -0.028994,-0.0638 -0.079528,-0.0961 -0.049705,-0.0323 -0.128404,-0.0323 -0.077871,0 -0.1292323,0.0323 -0.050533,0.0323 -0.080356,0.0978 -0.028166,0.0613 -0.038935,0.15988 -0.00994,0.0986 -0.00994,0.21622 0,0.12923 0.00911,0.21621 0.00911,0.087 0.038935,0.15574 0.027338,0.0646 0.077042,0.0986 0.050533,0.034 0.1333744,0.034 0.077871,0 0.1292324,-0.0323 0.051362,-0.0323 0.079528,-0.0978 z"
           inkscape:connector-curvature="0" />
        <path
           id="path1017"
           style="font-style:normal;font-variant:normal;font-weight:normal;font-stretch:normal;font-size:1.69658887px;font-family:sans-serif;-inkscape-font-specification:'sans-serif, Normal';font-variant-ligatures:normal;font-variant-caps:normal;font-variant-numeric:normal;font-feature-settings:normal;text-align:start;writing-mode:lr-tb;text-anchor:start;fill:#666666;stroke-width:0.96902984"
           d="M -8.1161645,226.74866 H -8.783865 v -0.12592 h 0.2568078 v -0.82676 H -8.783865 v -0.11266 q 0.05219,0 0.1118356,-0.008 0.059646,-0.009 0.090297,-0.0257 0.038107,-0.0207 0.059646,-0.0522 0.022367,-0.0323 0.025681,-0.0862 h 0.1284039 v 1.11173 h 0.2518375 z"
           inkscape:connector-curvature="0" />
        <path
           id="path1019"
           style="font-style:normal;font-variant:normal;font-weight:normal;font-stretch:normal;font-size:1.69658887px;font-family:sans-serif;-inkscape-font-specification:'sans-serif, Normal';font-variant-ligatures:normal;font-variant-caps:normal;font-variant-numeric:normal;font-feature-settings:normal;text-align:start;writing-mode:lr-tb;text-anchor:start;fill:#666666;stroke-width:0.96902984"
           d="m -6.9563869,226.40487 q 0,0.15988 -0.1250903,0.26592 -0.1242619,0.10603 -0.3131399,0.10603 -0.2004759,0 -0.3197673,-0.10355 -0.118463,-0.10355 -0.118463,-0.26509 0,-0.10272 0.059646,-0.18556 0.059646,-0.0837 0.1681678,-0.13255 v -0.005 q -0.09941,-0.053 -0.1474575,-0.11598 -0.047219,-0.063 -0.047219,-0.1574 0,-0.13917 0.114321,-0.23195 0.1143209,-0.0928 0.2907728,-0.0928 0.1847359,0 0.2949148,0.0887 0.1101789,0.0886 0.1101789,0.22532 0,0.0837 -0.05219,0.16486 -0.05219,0.0803 -0.1532563,0.12592 v 0.005 q 0.1159777,0.0497 0.1772803,0.1226 0.061303,0.0729 0.061303,0.18557 z m -0.1963338,-0.60226 q 0,-0.0886 -0.068758,-0.14083 -0.06793,-0.053 -0.1739667,-0.053 -0.1043799,0 -0.1714814,0.0497 -0.066273,0.0497 -0.066273,0.1342 0,0.0596 0.033137,0.10355 0.033965,0.0431 0.1018948,0.077 0.030651,0.0149 0.087812,0.0389 0.057989,0.024 0.1126641,0.0398 0.082013,-0.0547 0.1134925,-0.11349 0.03148,-0.0588 0.03148,-0.13586 z m 0.025681,0.618 q 0,-0.0762 -0.033965,-0.12178 -0.033137,-0.0464 -0.1308892,-0.0928 -0.038935,-0.0182 -0.085326,-0.034 -0.046391,-0.0157 -0.1234335,-0.0439 -0.074557,0.0406 -0.1201198,0.11018 -0.044734,0.0696 -0.044734,0.15739 0,0.11184 0.077042,0.18474 0.077042,0.0729 0.1955054,0.0729 0.1209482,0 0.1930201,-0.0621 0.0729,-0.0621 0.0729,-0.17065 z"
           inkscape:connector-curvature="0" />
      </g>
      <rect
         transform="scale(1,-1)"
         y="-228.40704"
         x="-11.04129"
         height="0.44039223"
         width="4.0848517"
         id="rect866"
         style="opacity:1;vector-effect:none;fill:#cccccc;fill-opacity:1;stroke:none;stroke-width:15.87507057;stroke-linecap:butt;stroke-linejoin:miter;stroke-miterlimit:4;stroke-dasharray:none;stroke-dashoffset:0;stroke-opacity:0.82745098" />
      <g
         transform="matrix(1,0,0,1.798932,0,-180.27185)"
         id="text849"
         style="font-style:normal;font-variant:normal;font-weight:bold;font-stretch:normal;font-size:3.57892752px;line-height:1.25;font-family:sans-serif;-inkscape-font-specification:'sans-serif, Bold';font-variant-ligatures:normal;font-variant-caps:normal;font-variant-numeric:normal;font-feature-settings:normal;text-align:start;letter-spacing:0px;word-spacing:0px;writing-mode:lr-tb;text-anchor:start;fill:#000000;fill-opacity:1;stroke:none;stroke-width:0.05219387"
         aria-label="7">
        <path
           id="path943"
           style="font-style:normal;font-variant:normal;font-weight:bold;font-stretch:normal;font-size:3.57892752px;font-family:sans-serif;-inkscape-font-specification:'sans-serif, Bold';font-variant-ligatures:normal;font-variant-caps:normal;font-variant-numeric:normal;font-feature-settings:normal;text-align:start;writing-mode:lr-tb;text-anchor:start;stroke-width:0.05219387"
           d="m -11.267053,225.09382 -1.177831,2.0848 h -0.74794 l 1.223267,-2.10402 h -1.336856 v -0.49804 h 2.03936 z"
           inkscape:connector-curvature="0" />
      </g>
    </g>
  </g>
</svg>
