<svg xmlns="http://www.w3.org/2000/svg" viewBox="0 0 24 24"><g stroke-width=".265"><text style="line-height:1.25" x="148.923" y="135.226" font-weight="400" font-size="10.583" font-family="sans-serif" letter-spacing="0" word-spacing="0" transform="translate(13.308 -222.671)"/><text style="line-height:1.25" x="114.905" y="136.738" font-weight="400" font-size="10.583" font-family="sans-serif" letter-spacing="0" word-spacing="0" transform="translate(13.308 -222.671)"/><path d="M10.446 5.522H10.1l-.996-1.88v1.88h-.26V3.42h.432l.91 1.715V3.421h.26zM12.29 5.522h-.265v-.175q-.134.105-.257.162-.123.056-.27.056-.249 0-.387-.15-.139-.153-.139-.447V3.945h.266v.898q0 .12.011.206.011.084.048.145.038.062.099.09.06.027.176.027.103 0 .224-.054.123-.053.229-.136V3.944h.265zM15.112 5.522h-.265v-.898q0-.101-.01-.196-.008-.094-.038-.15-.032-.062-.093-.093-.06-.03-.175-.03-.112 0-.223.057-.112.055-.223.14l.007.077q.003.042.003.084v1.01h-.265v-.898q0-.104-.01-.198-.009-.094-.038-.15-.033-.061-.093-.09-.061-.031-.175-.031-.109 0-.22.054-.108.053-.216.136v1.177h-.266V3.947h.266v.175q.124-.103.247-.16.124-.059.263-.059.161 0 .273.068.113.068.168.187.16-.135.293-.194.133-.061.284-.061.26 0 .382.158.124.156.124.439zM17.01 4.722q0 .197-.056.355-.056.158-.15.266-.1.111-.22.167-.12.056-.264.056-.134 0-.234-.034-.1-.03-.198-.085l-.017.073h-.248V3.325h.265v.784q.112-.092.237-.15.126-.059.282-.059.28 0 .44.215.163.214.163.605zm-.274.007q0-.282-.093-.427-.093-.147-.3-.147-.116 0-.235.05-.118.05-.22.13v.902q.113.05.194.07.081.02.184.02.22 0 .345-.144.125-.145.125-.455zM18.743 4.761H17.58q0 .146.044.254.044.107.12.177.073.067.174.101.101.034.223.034.16 0 .323-.063.163-.065.232-.127h.015v.289q-.134.056-.274.094-.14.039-.294.039-.392 0-.612-.212-.22-.213-.22-.604 0-.387.21-.614.212-.227.556-.227.319 0 .491.186.174.187.174.53zm-.259-.203q-.001-.21-.105-.323-.103-.115-.315-.115-.213 0-.34.126-.126.125-.143.312zM20.128 4.235h-.014q-.06-.015-.116-.02-.055-.007-.13-.007-.124 0-.238.056-.114.053-.22.139v1.119h-.265V3.946h.265v.233q.158-.127.278-.18.121-.053.247-.053.069 0 .1.004.031.002.093.011zM22.74 4.734q0 .385-.198.608-.197.223-.529.223-.334 0-.532-.223-.196-.223-.196-.608t.196-.608q.198-.224.532-.224.332 0 .53.224.197.223.197.608zm-.274 0q0-.306-.12-.454-.12-.15-.333-.15-.216 0-.336.15-.118.148-.118.454 0 .297.12.45.12.153.334.153.212 0 .332-.151.121-.152.121-.452zM24 3.583h-.014l-.114-.027q-.071-.015-.125-.015-.17 0-.248.077-.076.075-.076.272v.054h.478v.222h-.47V5.52h-.265V4.166h-.18v-.222h.18V3.89q0-.28.14-.43.14-.15.403-.15.09 0 .16.007.072.007.13.019zM10.141 8.373h-1.16q0 .145.043.254.044.107.12.177.073.067.173.101.102.034.223.034.161 0 .323-.063.164-.065.233-.127h.014v.289q-.134.056-.274.094-.14.039-.293.039-.392 0-.612-.212-.22-.213-.22-.604 0-.387.21-.614.211-.227.556-.227.319 0 .49.186.174.187.174.53zm-.258-.203q-.001-.21-.106-.323-.103-.114-.314-.114-.213 0-.34.125-.126.125-.143.312zM12.843 9.134h-.265v-.898q0-.101-.01-.196-.008-.094-.038-.151-.032-.06-.093-.092-.06-.03-.175-.03-.111 0-.223.056-.111.055-.223.141l.007.077q.003.042.003.084v1.009h-.265v-.898q0-.104-.01-.197-.008-.095-.038-.151-.032-.061-.093-.09-.06-.03-.175-.03-.109 0-.219.053-.108.054-.217.137v1.177h-.265V7.558h.265v.175q.124-.103.247-.16.124-.058.264-.058.16 0 .272.067.113.068.168.188.16-.136.293-.195.133-.06.284-.06.26 0 .382.157.125.157.125.439zM14.741 8.327q0 .192-.055.351-.055.158-.155.268-.093.104-.22.162-.126.057-.267.057-.123 0-.223-.027-.099-.026-.202-.083v.66h-.265V7.558h.265v.165q.106-.089.237-.148.133-.061.283-.061.285 0 .443.216.16.214.16.597zm-.274.007q0-.285-.097-.426-.097-.141-.3-.141-.113 0-.23.05-.115.05-.22.13v.892q.112.051.193.07.082.018.185.018.221 0 .345-.15.124-.149.124-.442zM15.423 9.134h-.266V6.938h.266zM17.294 8.346q0 .386-.198.608-.198.223-.53.223-.333 0-.531-.223-.196-.223-.196-.608t.196-.608q.198-.224.532-.224.331 0 .529.224.198.223.198.608zm-.274 0q0-.306-.12-.454-.12-.15-.333-.15-.216 0-.336.15-.118.148-.118.454 0 .297.12.45.12.153.334.153.212 0 .331-.151.122-.152.122-.452zM19.046 7.558l-.92 2.157h-.284l.294-.658-.628-1.5h.288l.484 1.169.488-1.168zM20.69 8.373h-1.161q0 .145.043.254.044.107.12.177.074.067.174.101.101.034.223.034.16 0 .323-.063.163-.065.233-.127h.014v.289q-.134.056-.274.094-.14.039-.294.039-.392 0-.612-.212-.22-.213-.22-.604 0-.387.21-.614.212-.227.556-.227.32 0 .491.186.174.187.174.53zm-.258-.203q-.002-.21-.106-.323-.103-.114-.315-.114-.213 0-.34.125-.126.125-.142.312zM22.411 8.373H21.25q0 .145.044.254.043.107.12.177.073.067.173.101.102.034.223.034.16 0 .323-.063.164-.065.233-.127h.014v.289q-.134.056-.274.094-.14.039-.293.039-.392 0-.612-.212-.22-.213-.22-.604 0-.387.21-.614.211-.227.556-.227.318 0 .49.186.174.187.174.53zm-.258-.203q-.001-.21-.106-.323-.103-.114-.315-.114-.213 0-.34.125-.125.125-.142.312zM23.94 8.68q0 .215-.18.353-.178.139-.487.139-.175 0-.321-.041-.146-.042-.245-.092v-.298h.015q.125.095.279.151.154.055.295.055.175 0 .274-.056.098-.056.098-.178 0-.093-.053-.14-.054-.049-.206-.082l-.148-.03q-.09-.016-.166-.038-.207-.055-.294-.161-.087-.108-.087-.263 0-.097.04-.183t.123-.154q.079-.066.2-.104.123-.04.274-.04.14 0 .285.035.145.034.241.083v.283h-.014q-.102-.075-.247-.125-.145-.052-.285-.052-.145 0-.245.056-.1.055-.1.165 0 .098.06.147.06.05.192.08l.164.034q.091.015.152.03.185.043.285.146.1.104.1.276z" style="line-height:1.25" font-weight="400" font-family="sans-serif" letter-spacing="0" word-spacing="0" fill="#999"/><g style="line-height:1.25;-inkscape-font-specification:'sans-serif, Normal';font-variant-ligatures:normal;font-variant-caps:normal;font-variant-numeric:normal;font-feature-settings:normal;text-align:start" aria-label="2018" font-weight="400" font-size="1.697" font-family="sans-serif" letter-spacing="0" word-spacing="0" fill="#666" stroke-width=".969"><path style="-inkscape-font-specification:'sans-serif, Normal';font-variant-ligatures:normal;font-variant-caps:normal;font-variant-numeric:normal;font-feature-settings:normal;text-align:start" d="M11.717 14.736H8.561v-.655l.658-.563q.331-.282.616-.56.602-.583.824-.924.222-.345.222-.742 0-.364-.241-.567-.238-.207-.667-.207-.285 0-.617.1t-.648.307h-.031v-.657q.222-.11.592-.2.372-.091.72-.091.717 0 1.124.347.407.344.407.936 0 .266-.07.498-.065.229-.196.435-.122.195-.288.382-.163.188-.398.417-.335.329-.692.638-.357.307-.667.57h2.508zM15.794 12.403q0 1.256-.395 1.844-.391.586-1.218.586-.839 0-1.227-.595-.385-.595-.385-1.829 0-1.243.391-1.834.391-.595 1.221-.595.84 0 1.224.604.389.601.389 1.82zm-.824 1.422q.11-.254.147-.595.041-.345.041-.827 0-.476-.04-.826-.038-.351-.15-.595-.11-.241-.302-.364-.187-.122-.485-.122-.294 0-.488.122-.191.123-.304.37-.106.232-.147.604-.038.373-.038.818 0 .488.035.817.034.329.147.588.103.245.291.373.191.129.504.129.294 0 .489-.123.194-.122.3-.37zM19.617 14.736h-2.524v-.476h.97v-3.125h-.97v-.426q.197 0 .423-.03.225-.034.341-.097.144-.078.225-.197.085-.122.097-.326h.486v4.202h.952zM24 13.436q0 .605-.473 1.005-.47.401-1.183.401-.758 0-1.209-.391-.448-.392-.448-1.002 0-.388.226-.701.225-.317.635-.501v-.02q-.375-.2-.557-.438-.178-.238-.178-.595 0-.526.432-.876t1.099-.35q.698 0 1.114.334.417.335.417.852 0 .316-.197.623-.198.304-.58.476v.019q.439.188.67.463.232.276.232.702zm-.742-2.276q0-.335-.26-.532-.257-.2-.657-.2-.395 0-.649.187-.25.188-.25.508 0 .225.125.391.129.163.385.291.116.056.332.147.22.09.426.15.31-.206.429-.428.119-.223.119-.514zm.097 2.336q0-.288-.128-.46-.126-.176-.495-.351-.147-.069-.323-.129-.175-.059-.466-.166-.282.154-.454.417-.17.263-.17.595 0 .422.292.698.291.276.739.276.457 0 .73-.235.275-.235.275-.645z"/></g><path fill="#ccc" d="M8.562 21.003h15.44v-1.662H8.561z"/><g style="line-height:1.25;-inkscape-font-specification:'sans-serif, Bold';font-variant-ligatures:normal;font-variant-caps:normal;font-variant-numeric:normal;font-feature-settings:normal;text-align:start"><path style="-inkscape-font-specification:'sans-serif, Bold';font-variant-ligatures:normal;font-variant-caps:normal;font-variant-numeric:normal;font-feature-settings:normal;text-align:start" d="M7.708 6.829L3.256 21.004H.43L5.053 6.698H0V3.312h7.708z" font-weight="700" font-size="3.579" font-family="sans-serif" stroke-width=".052" aria-label="7" letter-spacing="0" word-spacing="0"/></g></g></svg>