<?xml version="1.0" encoding="UTF-8" standalone="no"?>
<!-- Created with Inkscape (http://www.inkscape.org/) -->

<svg
   xmlns:dc="http://purl.org/dc/elements/1.1/"
   xmlns:cc="http://creativecommons.org/ns#"
   xmlns:rdf="http://www.w3.org/1999/02/22-rdf-syntax-ns#"
   xmlns:svg="http://www.w3.org/2000/svg"
   xmlns="http://www.w3.org/2000/svg"
   xmlns:sodipodi="http://sodipodi.sourceforge.net/DTD/sodipodi-0.dtd"
   xmlns:inkscape="http://www.inkscape.org/namespaces/inkscape"
   viewBox="0 0 24 24"
   version="1.1"
   id="svg8"
   inkscape:version="0.92.3 (2405546, 2018-03-11)"
   sodipodi:docname="wordcloud.svg">
  <defs
     id="defs2" />
  <sodipodi:namedview
     id="base"
     pagecolor="#ffffff"
     bordercolor="#666666"
     borderopacity="1.0"
     inkscape:pageopacity="0.0"
     inkscape:pageshadow="2"
     inkscape:zoom="15.839192"
     inkscape:cx="17.512577"
     inkscape:cy="13.945537"
     inkscape:document-units="px"
     inkscape:current-layer="layer1"
     showgrid="false"
     fit-margin-top="0"
     fit-margin-left="0"
     fit-margin-right="0"
     fit-margin-bottom="0"
     units="px"
     inkscape:window-width="1368"
     inkscape:window-height="849"
     inkscape:window-x="-8"
     inkscape:window-y="-8"
     inkscape:window-maximized="1" />
  <metadata
     id="metadata5">
    <rdf:RDF>
      <cc:Work
         rdf:about="">
        <dc:format>image/svg+xml</dc:format>
        <dc:type
           rdf:resource="http://purl.org/dc/dcmitype/StillImage" />
        <dc:title />
      </cc:Work>
    </rdf:RDF>
  </metadata>
  <g
     inkscape:label="Layer 1"
     inkscape:groupmode="layer"
     id="layer1"
     transform="translate(-23.433352,-150.78693)">
    <g
       id="flowRoot815"
       style="font-style:normal;font-weight:normal;font-size:40px;line-height:1.25;font-family:sans-serif;letter-spacing:0px;word-spacing:0px;fill:#000000;fill-opacity:1;stroke:none;stroke-width:0.26458335"
       transform="matrix(0.11760306,0,0,0.11760306,13.017601,103.28875)"
       aria-label="WORD">
      <path
         style="stroke-width:0.26458335"
         inkscape:connector-curvature="0"
         id="path840"
         d="m 160.61133,484.21587 -7.5586,29.08203 h -4.35546 l -6.11329,-24.14062 -5.97656,24.14062 h -4.25781 l -7.69531,-29.08203 h 3.96484 l 6.11328,24.17969 6.01563,-24.17969 h 3.92578 l 6.07422,24.41406 6.07422,-24.41406 z" />
      <path
         style="stroke-width:0.26458335"
         inkscape:connector-curvature="0"
         id="path842"
         d="m 187.97461,487.55571 q 1.77734,1.95313 2.71484,4.78516 0.95703,2.83203 0.95703,6.42578 0,3.59375 -0.97656,6.44531 -0.95703,2.83203 -2.69531,4.72657 -1.79688,1.97265 -4.25781,2.96875 -2.44141,0.99609 -5.58594,0.99609 -3.06641,0 -5.58594,-1.01563 -2.5,-1.01562 -4.25781,-2.94921 -1.75781,-1.9336 -2.71484,-4.7461 -0.9375,-2.8125 -0.9375,-6.42578 0,-3.55469 0.9375,-6.36719 0.9375,-2.83203 2.73437,-4.84375 1.71875,-1.91406 4.25781,-2.92968 2.5586,-1.01563 5.56641,-1.01563 3.125,0 5.60547,1.03516 2.5,1.01562 4.23828,2.91015 z m -0.35156,11.21094 q 0,-5.66406 -2.53907,-8.73047 -2.53906,-3.08594 -6.93359,-3.08594 -4.43359,0 -6.97266,3.08594 -2.51953,3.06641 -2.51953,8.73047 0,5.72266 2.57813,8.76953 2.57812,3.02735 6.91406,3.02735 4.33594,0 6.89453,-3.02735 2.57813,-3.04687 2.57813,-8.76953 z" />
      <path
         style="stroke-width:0.26458335"
         inkscape:connector-curvature="0"
         id="path844"
         d="m 221.8418,513.2979 h -5.01953 l -9.72657,-11.5625 h -5.44922 v 11.5625 h -3.86718 v -29.08203 h 8.14453 q 2.63672,0 4.39453,0.35156 1.75781,0.33203 3.16406,1.21094 1.58203,0.99609 2.46094,2.51953 0.89844,1.50391 0.89844,3.82813 0,3.14453 -1.58203,5.27343 -1.58204,2.10938 -4.35547,3.1836 z m -9.04297,-20.89844 q 0,-1.25 -0.44922,-2.20703 -0.42969,-0.97656 -1.44531,-1.64062 -0.83985,-0.56641 -1.99219,-0.78125 -1.15234,-0.23438 -2.71484,-0.23438 h -4.55079 v 10.97656 h 3.90625 q 1.83594,0 3.20313,-0.3125 1.36719,-0.33203 2.32422,-1.21093 0.8789,-0.82032 1.28906,-1.875 0.42969,-1.07422 0.42969,-2.71485 z" />
      <path
         style="stroke-width:0.26458335"
         inkscape:connector-curvature="0"
         id="path846"
         d="m 250.16211,498.78618 q 0,3.96485 -1.73828,7.1875 -1.71875,3.22266 -4.58985,5 -1.99218,1.23047 -4.45312,1.77735 -2.44141,0.54687 -6.44531,0.54687 h -7.34375 v -29.08203 h 7.26562 q 4.25781,0 6.75781,0.625 2.51954,0.60547 4.25782,1.67969 2.96875,1.85547 4.6289,4.9414 1.66016,3.08594 1.66016,7.32422 z m -4.04297,-0.0586 q 0,-3.41797 -1.19141,-5.76172 -1.1914,-2.34375 -3.55468,-3.69141 -1.71875,-0.97656 -3.65235,-1.34765 -1.93359,-0.39063 -4.6289,-0.39063 h -3.63282 v 22.44141 h 3.63282 q 2.79297,0 4.86328,-0.41016 2.08984,-0.41015 3.82812,-1.52344 2.16797,-1.38671 3.24219,-3.65234 1.09375,-2.26562 1.09375,-5.66406 z" />
    </g>
    <g
       id="flowRoot831"
       style="font-style:normal;font-weight:normal;font-size:40px;line-height:1.25;font-family:sans-serif;letter-spacing:0px;word-spacing:0px;fill:#000000;fill-opacity:1;stroke:none;stroke-width:0.26458335"
       transform="matrix(0.10334097,0,0,0.09592233,15.353122,89.472006)"
       aria-label="Hello">
      <text
         xml:space="preserve"
         style="font-style:normal;font-weight:normal;font-size:401.75735474px;line-height:1.25;font-family:sans-serif;letter-spacing:0px;word-spacing:0px;fill:#000000;fill-opacity:1;stroke:none;stroke-width:2.65745759"
         x="179.80309"
         y="686.40411"
         id="text885"
         transform="scale(0.96343756,1.03795)"><tspan
           sodipodi:role="line"
           id="tspan883"
           x="179.80309"
           y="686.40411"
           style="font-style:normal;font-variant:normal;font-weight:normal;font-stretch:normal;font-size:53.56764603px;font-family:'Bauhaus 93';-inkscape-font-specification:'Bauhaus 93, Normal';font-variant-ligatures:normal;font-variant-caps:normal;font-variant-numeric:normal;font-feature-settings:normal;text-align:start;writing-mode:lr-tb;text-anchor:start;stroke-width:2.65745759">Info</tspan></text>
    </g>
    <g
       id="flowRoot839"
       style="font-style:normal;font-weight:normal;font-size:40px;line-height:1.25;font-family:sans-serif;letter-spacing:0px;word-spacing:0px;fill:#ccb6b6;fill-opacity:1;stroke:none;stroke-width:0.26458335"
       transform="matrix(0.11760306,0,0,0.11760306,22.576154,136.55362)"
       aria-label="cloud">
      <path
         style="stroke-width:0.26458335"
         inkscape:connector-curvature="0"
         id="path875"
         d="m 128.31836,271.93071 q -1.83594,0.87891 -3.49609,1.36719 -1.64063,0.48828 -3.4961,0.48828 -2.36328,0 -4.33594,-0.68359 -1.97265,-0.70313 -3.3789,-2.10938 -1.42578,-1.40625 -2.20703,-3.55468 -0.78125,-2.14844 -0.78125,-5.01954 0,-5.35156 2.92968,-8.39843 2.94922,-3.04688 7.77344,-3.04688 1.875,0 3.67188,0.52735 1.8164,0.52734 3.32031,1.28906 v 4.08203 h -0.19531 q -1.67969,-1.30859 -3.47657,-2.01172 -1.77734,-0.70312 -3.47656,-0.70312 -3.125,0 -4.9414,2.10937 -1.79688,2.08984 -1.79688,6.15234 0,3.94532 1.75781,6.07422 1.77735,2.10938 4.98047,2.10938 1.11328,0 2.26563,-0.29297 1.15234,-0.29297 2.07031,-0.76172 0.80078,-0.41016 1.50391,-0.85937 0.70312,-0.46875 1.11328,-0.80079 h 0.19531 z" />
      <path
         style="stroke-width:0.26458335"
         inkscape:connector-curvature="0"
         id="path877"
         d="m 136.75586,273.2979 h -3.67188 v -30.39062 h 3.67188 z" />
      <path
         style="stroke-width:0.26458335"
         inkscape:connector-curvature="0"
         id="path879"
         d="m 162.6543,262.39946 q 0,5.33203 -2.73438,8.41797 -2.73437,3.08594 -7.32422,3.08594 -4.6289,0 -7.36328,-3.08594 -2.71484,-3.08594 -2.71484,-8.41797 0,-5.33203 2.71484,-8.41797 2.73438,-3.10546 7.36328,-3.10546 4.58985,0 7.32422,3.10546 2.73438,3.08594 2.73438,8.41797 z m -3.78907,0 q 0,-4.23828 -1.66015,-6.28906 -1.66016,-2.07031 -4.60938,-2.07031 -2.98828,0 -4.64843,2.07031 -1.64063,2.05078 -1.64063,6.28906 0,4.10157 1.66016,6.23047 1.66015,2.10938 4.6289,2.10938 2.92969,0 4.58985,-2.08985 1.67968,-2.10937 1.67968,-6.25 z" />
      <path
         style="stroke-width:0.26458335"
         inkscape:connector-curvature="0"
         id="path881"
         d="m 186.44336,273.2979 h -3.67188 v -2.42187 q -1.85546,1.46484 -3.55468,2.24609 -1.69922,0.78125 -3.75,0.78125 -3.4375,0 -5.35157,-2.08984 -1.91406,-2.10938 -1.91406,-6.17188 v -14.16016 h 3.67188 v 12.42188 q 0,1.66016 0.15625,2.85156 0.15625,1.17188 0.66406,2.01172 0.52734,0.85938 1.36719,1.25 0.83984,0.39063 2.4414,0.39063 1.42578,0 3.10547,-0.74219 1.69922,-0.74219 3.16406,-1.89453 v -16.28907 h 3.67188 z" />
      <path
         style="stroke-width:0.26458335"
         inkscape:connector-curvature="0"
         id="path883"
         d="m 211.36523,273.2979 h -3.67187 v -2.28516 q -1.58203,1.36719 -3.30078,2.12891 -1.71875,0.76172 -3.73047,0.76172 -3.90625,0 -6.21094,-3.00781 -2.28515,-3.00782 -2.28515,-8.33985 0,-2.77343 0.78125,-4.9414 0.80078,-2.16797 2.14843,-3.69141 1.32813,-1.48437 3.08594,-2.26562 1.77734,-0.78125 3.67188,-0.78125 1.71875,0 3.04687,0.37109 1.32813,0.35156 2.79297,1.11328 v -9.45312 h 3.67187 z m -3.67187,-5.37109 v -12.51953 q -1.48438,-0.66407 -2.65625,-0.91797 -1.17188,-0.25391 -2.55859,-0.25391 -3.08594,0 -4.80469,2.14844 -1.71875,2.14844 -1.71875,6.09375 0,3.88672 1.32812,5.91797 1.32813,2.01172 4.25782,2.01172 1.5625,0 3.16406,-0.6836 1.60156,-0.70312 2.98828,-1.79687 z" />
    </g>
    <g
       id="flowRoot847"
       style="font-style:normal;font-weight:normal;font-size:40px;line-height:1.25;font-family:sans-serif;letter-spacing:0px;word-spacing:0px;fill:#2b0101;fill-opacity:1;stroke:none;stroke-width:0.26458335"
       inkscape:transform-center-y="24.468647"
       inkscape:transform-center-x="21.138737"
       transform="matrix(-6.8348336e-4,0.11760105,-0.11760105,-6.8348336e-4,138.22266,132.72434)"
       aria-label="text">
      <path
         style="stroke-width:0.26458335"
         inkscape:connector-curvature="0"
         id="path886"
         d="m 197.79883,798.81743 q -1.03516,0.27344 -2.26563,0.44922 -1.21093,0.17578 -2.16797,0.17578 -3.33984,0 -5.07812,-1.79687 -1.73828,-1.79688 -1.73828,-5.76172 v -11.60156 h -2.48047 v -3.08594 h 2.48047 v -6.26953 h 3.67187 v 6.26953 h 7.57813 v 3.08594 h -7.57813 v 9.9414 q 0,1.71875 0.0781,2.69531 0.0781,0.95704 0.54687,1.79688 0.42969,0.78125 1.17188,1.15234 0.76172,0.35157 2.30469,0.35157 0.89843,0 1.875,-0.25391 0.97656,-0.27344 1.40625,-0.44922 h 0.19531 z" />
      <path
         style="stroke-width:0.26458335"
         inkscape:connector-curvature="0"
         id="path888"
         d="m 220.51367,788.4854 h -16.07422 q 0,2.01172 0.60547,3.51563 0.60547,1.48437 1.66016,2.4414 1.01562,0.9375 2.40234,1.40625 1.40625,0.46875 3.08594,0.46875 2.22656,0 4.47266,-0.8789 2.26562,-0.89844 3.22265,-1.75782 h 0.19531 v 4.00391 q -1.85546,0.78125 -3.78906,1.30859 -1.93359,0.52735 -4.0625,0.52735 -5.42969,0 -8.47656,-2.92969 -3.04688,-2.94922 -3.04688,-8.35938 0,-5.35156 2.91016,-8.49609 2.92969,-3.14453 7.69531,-3.14453 4.41407,0 6.79688,2.57812 2.40234,2.57813 2.40234,7.32422 z m -3.57422,-2.8125 q -0.0195,-2.89062 -1.46484,-4.47266 -1.42578,-1.58203 -4.35547,-1.58203 -2.94922,0 -4.70703,1.73828 -1.73828,1.73829 -1.97266,4.31641 z" />
      <path
         style="stroke-width:0.26458335"
         inkscape:connector-curvature="0"
         id="path890"
         d="m 244.9668,799.01274 h -4.62891 l -6.19141,-8.3789 -6.23046,8.3789 h -4.27735 l 8.51563,-10.8789 -8.4375,-10.9375 h 4.6289 l 6.15235,8.24219 6.17187,-8.24219 h 4.29688 l -8.57422,10.74219 z" />
      <path
         style="stroke-width:0.26458335"
         inkscape:connector-curvature="0"
         id="path892"
         d="m 261.08008,798.81743 q -1.03516,0.27344 -2.26563,0.44922 -1.21093,0.17578 -2.16797,0.17578 -3.33984,0 -5.07812,-1.79687 -1.73828,-1.79688 -1.73828,-5.76172 v -11.60156 h -2.48047 v -3.08594 h 2.48047 v -6.26953 h 3.67187 v 6.26953 h 7.57813 v 3.08594 h -7.57813 v 9.9414 q 0,1.71875 0.0781,2.69531 0.0781,0.95704 0.54687,1.79688 0.42969,0.78125 1.17188,1.15234 0.76172,0.35157 2.30469,0.35157 0.89843,0 1.875,-0.25391 0.97656,-0.27344 1.40625,-0.44922 h 0.19531 z" />
    </g>
    <g
       id="flowRoot855"
       style="font-style:normal;font-weight:normal;font-size:40px;line-height:1.25;font-family:sans-serif;letter-spacing:0px;word-spacing:0px;fill:#000000;fill-opacity:1;stroke:none;stroke-width:0.26458335"
       transform="matrix(0.11760306,0,0,0.11760306,24.965655,79.768145)"
       aria-label="data">
      <path
         style="stroke-width:0.26458335"
         inkscape:connector-curvature="0"
         id="path895"
         d="m 127.02344,793.2979 h -3.67188 v -2.28516 q -1.58203,1.36719 -3.30078,2.12891 -1.71875,0.76172 -3.73047,0.76172 -3.90625,0 -6.21093,-3.00781 -2.28516,-3.00782 -2.28516,-8.33985 0,-2.77343 0.78125,-4.9414 0.80078,-2.16797 2.14844,-3.69141 1.32812,-1.48437 3.08593,-2.26562 1.77735,-0.78125 3.67188,-0.78125 1.71875,0 3.04687,0.37109 1.32813,0.35156 2.79297,1.11328 v -9.45312 h 3.67188 z m -3.67188,-5.37109 v -12.51953 q -1.48437,-0.66407 -2.65625,-0.91797 -1.17187,-0.25391 -2.55859,-0.25391 -3.08594,0 -4.80469,2.14844 -1.71875,2.14844 -1.71875,6.09375 0,3.88672 1.32813,5.91797 1.32812,2.01172 4.25781,2.01172 1.5625,0 3.16406,-0.6836 1.60156,-0.70312 2.98828,-1.79687 z" />
      <path
         style="stroke-width:0.26458335"
         inkscape:connector-curvature="0"
         id="path897"
         d="m 151.20312,793.2979 h -3.65234 v -2.32422 q -0.48828,0.33203 -1.32812,0.9375 -0.82032,0.58594 -1.60157,0.9375 -0.91797,0.44922 -2.10937,0.74219 -1.19141,0.3125 -2.79297,0.3125 -2.94922,0 -5,-1.95313 -2.05078,-1.95312 -2.05078,-4.98046 0,-2.48047 1.05469,-4.00391 1.07421,-1.54297 3.04687,-2.42188 1.99219,-0.8789 4.78516,-1.1914 2.79297,-0.3125 5.99609,-0.46875 v -0.56641 q 0,-1.25 -0.44922,-2.07031 -0.42969,-0.82031 -1.25,-1.28906 -0.78125,-0.44922 -1.875,-0.60547 -1.09375,-0.15625 -2.28515,-0.15625 -1.44532,0 -3.22266,0.39062 -1.77734,0.3711 -3.67188,1.09375 h -0.19531 v -3.73047 q 1.07422,-0.29296 3.10547,-0.64453 2.03125,-0.35156 4.00391,-0.35156 2.30468,0 4.0039,0.39063 1.71875,0.37109 2.96875,1.28906 1.23047,0.89844 1.875,2.32422 0.64453,1.42578 0.64453,3.53515 z m -3.65234,-5.37109 v -6.07422 q -1.67969,0.0977 -3.96484,0.29297 -2.26563,0.19531 -3.59375,0.5664 -1.58203,0.44922 -2.5586,1.40625 -0.97656,0.9375 -0.97656,2.59766 0,1.875 1.13281,2.83203 1.13282,0.9375 3.45703,0.9375 1.9336,0 3.53516,-0.74219 1.60156,-0.76172 2.96875,-1.8164 z" />
      <path
         style="stroke-width:0.26458335"
         inkscape:connector-curvature="0"
         id="path899"
         d="m 169.64062,793.10259 q -1.03515,0.27344 -2.26562,0.44922 -1.21094,0.17578 -2.16797,0.17578 -3.33984,0 -5.07812,-1.79688 -1.73829,-1.79687 -1.73829,-5.76172 v -11.60156 h -2.48046 v -3.08594 h 2.48046 v -6.26953 h 3.67188 v 6.26953 h 7.57812 v 3.08594 h -7.57812 v 9.94141 q 0,1.71875 0.0781,2.69531 0.0781,0.95703 0.54688,1.79688 0.42969,0.78125 1.17187,1.15234 0.76172,0.35156 2.30469,0.35156 0.89844,0 1.875,-0.2539 0.97656,-0.27344 1.40625,-0.44922 h 0.19531 z" />
      <path
         style="stroke-width:0.26458335"
         inkscape:connector-curvature="0"
         id="path901"
         d="m 191.04687,793.2979 h -3.65234 v -2.32422 q -0.48828,0.33203 -1.32812,0.9375 -0.82032,0.58594 -1.60157,0.9375 -0.91797,0.44922 -2.10937,0.74219 -1.19141,0.3125 -2.79297,0.3125 -2.94922,0 -5,-1.95313 -2.05078,-1.95312 -2.05078,-4.98046 0,-2.48047 1.05469,-4.00391 1.07421,-1.54297 3.04687,-2.42188 1.99219,-0.8789 4.78516,-1.1914 2.79297,-0.3125 5.99609,-0.46875 v -0.56641 q 0,-1.25 -0.44922,-2.07031 -0.42969,-0.82031 -1.25,-1.28906 -0.78125,-0.44922 -1.875,-0.60547 -1.09375,-0.15625 -2.28515,-0.15625 -1.44532,0 -3.22266,0.39062 -1.77734,0.3711 -3.67188,1.09375 h -0.19531 v -3.73047 q 1.07422,-0.29296 3.10547,-0.64453 2.03125,-0.35156 4.00391,-0.35156 2.30468,0 4.0039,0.39063 1.71875,0.37109 2.96875,1.28906 1.23047,0.89844 1.875,2.32422 0.64453,1.42578 0.64453,3.53515 z m -3.65234,-5.37109 v -6.07422 q -1.67969,0.0977 -3.96484,0.29297 -2.26563,0.19531 -3.59375,0.5664 -1.58203,0.44922 -2.5586,1.40625 -0.97656,0.9375 -0.97656,2.59766 0,1.875 1.13281,2.83203 1.13282,0.9375 3.45703,0.9375 1.9336,0 3.53516,-0.74219 1.60156,-0.76172 2.96875,-1.8164 z" />
    </g>
    <g
       aria-label="Analysis"
       transform="matrix(0,-3.9113446,3.6521528,0,-65.133647,-418.76975)"
       style="font-style:normal;font-weight:normal;font-size:9.04435253px;line-height:1.25;font-family:sans-serif;letter-spacing:0px;word-spacing:0px;fill:#000000;fill-opacity:1;stroke:none;stroke-width:0.07000434"
       id="text889">
      <path
         inkscape:connector-curvature="0"
         d="m -150.69841,25.16684 h -0.23377 l -0.0607,-0.177237 h -0.32503 l -0.0607,0.177237 h -0.22787 l 0.32385,-0.876761 h 0.26026 z m -0.34918,-0.337986 -0.10775,-0.314433 -0.10776,0.314433 z"
         style="font-style:normal;font-variant:normal;font-weight:bold;font-stretch:normal;font-size:1.20591378px;font-family:sans-serif;-inkscape-font-specification:'sans-serif, Bold';font-variant-ligatures:normal;font-variant-caps:normal;font-variant-numeric:normal;font-feature-settings:normal;text-align:start;writing-mode:lr-tb;text-anchor:start;fill:#e9afaf;stroke-width:0.07000434"
         id="path891" />
      <path
         inkscape:connector-curvature="0"
         d="m -149.91881,25.16684 h -0.21315 v -0.327976 q 0,-0.04004 -0.004,-0.07949 -0.004,-0.04004 -0.0141,-0.05888 -0.0118,-0.02179 -0.0347,-0.0318 -0.0224,-0.01001 -0.063,-0.01001 -0.0289,0 -0.0589,0.0094 -0.0294,0.0094 -0.0642,0.03003 v 0.468705 h -0.21197 v -0.661251 h 0.21197 v 0.07301 q 0.0565,-0.04416 0.10835,-0.06771 0.0524,-0.02355 0.116,-0.02355 0.10716,0 0.16722,0.06242 0.0606,0.06241 0.0606,0.186657 z"
         style="font-style:normal;font-variant:normal;font-weight:bold;font-stretch:normal;font-size:1.20591378px;font-family:sans-serif;-inkscape-font-specification:'sans-serif, Bold';font-variant-ligatures:normal;font-variant-caps:normal;font-variant-numeric:normal;font-feature-settings:normal;text-align:start;writing-mode:lr-tb;text-anchor:start;fill:#e9afaf;stroke-width:0.07000434"
         id="path893" />
      <path
         inkscape:connector-curvature="0"
         d="m -149.32292,24.994314 v -0.137785 q -0.043,0.0035 -0.093,0.01001 -0.05,0.0059 -0.076,0.01413 -0.0318,0.01001 -0.0489,0.02944 -0.0165,0.01884 -0.0165,0.05005 0,0.02061 0.004,0.03356 0.004,0.01295 0.0177,0.02473 0.0135,0.01178 0.0324,0.01766 0.0188,0.0053 0.0589,0.0053 0.0318,0 0.0642,-0.01295 0.033,-0.01295 0.0577,-0.03415 z m 0,0.102455 q -0.0171,0.01296 -0.0424,0.03121 -0.0253,0.01825 -0.0477,0.02885 -0.0312,0.01413 -0.0648,0.02061 -0.0336,0.0071 -0.0736,0.0071 -0.0942,0 -0.15781,-0.05829 -0.0636,-0.05829 -0.0636,-0.148973 0,-0.07243 0.0324,-0.118354 0.0324,-0.04593 0.0919,-0.07242 0.0589,-0.0265 0.14603,-0.03768 0.0872,-0.01119 0.18077,-0.01649 v -0.0035 q 0,-0.05476 -0.0447,-0.07537 -0.0447,-0.0212 -0.1319,-0.0212 -0.0524,0 -0.11188,0.01884 -0.0595,0.01825 -0.0854,0.02826 h -0.0194 v -0.159571 q 0.0336,-0.0088 0.10894,-0.02061 0.076,-0.01236 0.15191,-0.01236 0.18077,0 0.26085,0.05594 0.0807,0.05535 0.0807,0.174292 v 0.449863 h -0.21021 z"
         style="font-style:normal;font-variant:normal;font-weight:bold;font-stretch:normal;font-size:1.20591378px;font-family:sans-serif;-inkscape-font-specification:'sans-serif, Bold';font-variant-ligatures:normal;font-variant-caps:normal;font-variant-numeric:normal;font-feature-settings:normal;text-align:start;writing-mode:lr-tb;text-anchor:start;fill:#e9afaf;stroke-width:0.07000434"
         id="path896" />
      <path
         inkscape:connector-curvature="0"
         d="m -148.70583,25.16684 h -0.21198 v -0.916212 h 0.21198 z"
         style="font-style:normal;font-variant:normal;font-weight:bold;font-stretch:normal;font-size:1.20591378px;font-family:sans-serif;-inkscape-font-specification:'sans-serif, Bold';font-variant-ligatures:normal;font-variant-caps:normal;font-variant-numeric:normal;font-feature-settings:normal;text-align:start;writing-mode:lr-tb;text-anchor:start;fill:#e9afaf;stroke-width:0.07000434"
         id="path898" />
      <path
         inkscape:connector-curvature="0"
         d="m -148.20709,24.933076 0.15073,-0.427487 h 0.21787 l -0.36743,0.903847 h -0.22964 l 0.10481,-0.247307 -0.25731,-0.65654 h 0.22257 z"
         style="font-style:normal;font-variant:normal;font-weight:bold;font-stretch:normal;font-size:1.20591378px;font-family:sans-serif;-inkscape-font-specification:'sans-serif, Bold';font-variant-ligatures:normal;font-variant-caps:normal;font-variant-numeric:normal;font-feature-settings:normal;text-align:start;writing-mode:lr-tb;text-anchor:start;fill:#e9afaf;stroke-width:0.07000434"
         id="path900" />
      <path
         inkscape:connector-curvature="0"
         d="m -147.14662,24.957218 q 0,0.102455 -0.0919,0.16546 -0.0918,0.06241 -0.25143,0.06241 -0.0883,0 -0.16016,-0.01649 -0.0718,-0.01649 -0.11541,-0.03651 v -0.174292 h 0.0194 q 0.0159,0.01119 0.0365,0.02473 0.0212,0.01295 0.0595,0.02826 0.033,0.01354 0.0748,0.02355 0.0418,0.0094 0.0895,0.0094 0.0624,0 0.0924,-0.01354 0.03,-0.01413 0.03,-0.04122 0,-0.02414 -0.0177,-0.03474 -0.0177,-0.01119 -0.0671,-0.0212 -0.0236,-0.0053 -0.0642,-0.01119 -0.04,-0.0065 -0.073,-0.01531 -0.0901,-0.02355 -0.13366,-0.07301 -0.0436,-0.05005 -0.0436,-0.124242 0,-0.09539 0.0901,-0.158394 0.0907,-0.06359 0.2473,-0.06359 0.0742,0 0.14191,0.01531 0.0683,0.01472 0.10658,0.0318 v 0.167227 h -0.0182 q -0.0471,-0.03239 -0.10776,-0.05241 -0.0601,-0.02061 -0.12189,-0.02061 -0.0512,0 -0.0865,0.01413 -0.0347,0.01413 -0.0347,0.04004 0,0.02355 0.0159,0.03592 0.0159,0.01236 0.0748,0.02473 0.0324,0.0065 0.0695,0.01296 0.0377,0.0059 0.0754,0.01531 0.0836,0.02179 0.12365,0.06889 0.04,0.04652 0.04,0.116587 z"
         style="font-style:normal;font-variant:normal;font-weight:bold;font-stretch:normal;font-size:1.20591378px;font-family:sans-serif;-inkscape-font-specification:'sans-serif, Bold';font-variant-ligatures:normal;font-variant-caps:normal;font-variant-numeric:normal;font-feature-settings:normal;text-align:start;writing-mode:lr-tb;text-anchor:start;fill:#e9afaf;stroke-width:0.07000434"
         id="path902" />
      <path
         inkscape:connector-curvature="0"
         d="m -146.79333,25.16684 h -0.21197 v -0.661251 h 0.21197 z m 0.006,-0.755463 h -0.22375 v -0.160749 h 0.22375 z"
         style="font-style:normal;font-variant:normal;font-weight:bold;font-stretch:normal;font-size:1.20591378px;font-family:sans-serif;-inkscape-font-specification:'sans-serif, Bold';font-variant-ligatures:normal;font-variant-caps:normal;font-variant-numeric:normal;font-feature-settings:normal;text-align:start;writing-mode:lr-tb;text-anchor:start;fill:#e9afaf;stroke-width:0.07000434"
         id="path904" />
      <path
         inkscape:connector-curvature="0"
         d="m -146.01843,24.957218 q 0,0.102455 -0.0919,0.16546 -0.0919,0.06241 -0.25143,0.06241 -0.0883,0 -0.16016,-0.01649 -0.0718,-0.01649 -0.11541,-0.03651 v -0.174292 h 0.0194 q 0.0159,0.01119 0.0365,0.02473 0.0212,0.01295 0.0595,0.02826 0.033,0.01354 0.0748,0.02355 0.0418,0.0094 0.0895,0.0094 0.0624,0 0.0924,-0.01354 0.03,-0.01413 0.03,-0.04122 0,-0.02414 -0.0177,-0.03474 -0.0177,-0.01119 -0.0671,-0.0212 -0.0236,-0.0053 -0.0642,-0.01119 -0.04,-0.0065 -0.073,-0.01531 -0.0901,-0.02355 -0.13366,-0.07301 -0.0436,-0.05005 -0.0436,-0.124242 0,-0.09539 0.0901,-0.158394 0.0907,-0.06359 0.2473,-0.06359 0.0742,0 0.14191,0.01531 0.0683,0.01472 0.10658,0.0318 v 0.167227 h -0.0183 q -0.0471,-0.03239 -0.10775,-0.05241 -0.0601,-0.02061 -0.12189,-0.02061 -0.0512,0 -0.0866,0.01413 -0.0347,0.01413 -0.0347,0.04004 0,0.02355 0.0159,0.03592 0.0159,0.01236 0.0748,0.02473 0.0324,0.0065 0.0695,0.01296 0.0377,0.0059 0.0754,0.01531 0.0836,0.02179 0.12366,0.06889 0.04,0.04652 0.04,0.116587 z"
         style="font-style:normal;font-variant:normal;font-weight:bold;font-stretch:normal;font-size:1.20591378px;font-family:sans-serif;-inkscape-font-specification:'sans-serif, Bold';font-variant-ligatures:normal;font-variant-caps:normal;font-variant-numeric:normal;font-feature-settings:normal;text-align:start;writing-mode:lr-tb;text-anchor:start;fill:#e9afaf;stroke-width:0.07000434"
         id="path906" />
    </g>
  </g>
</svg>
